<?xml version="1.0" encoding="UTF-8"?>
<svg version="1.1" xmlns="http://www.w3.org/2000/svg" width="8192" height="6372">
<path d="M0 0 C2703.36 0 5406.72 0 8192 0 C8192 2102.76 8192 4205.52 8192 6372 C5488.64 6372 2785.28 6372 0 6372 C0 4269.24 0 2166.48 0 0 Z " fill="#464646" transform="translate(0,0)"/>
<path d="M0 0 C1.75443176 0.01311613 3.50887175 0.02516411 5.26331735 0.03627688 C11.24444305 0.08161743 17.22482957 0.16487576 23.20550537 0.24961853 C25.43734426 0.27924898 27.66918476 0.30875851 29.90102673 0.33815646 C46.2164039 0.55797778 62.53065057 0.83618114 78.84489734 1.12596054 C86.46337702 1.26114808 94.08192941 1.39203227 101.70048491 1.52286491 C115.76380025 1.76448801 129.82705704 2.00936682 143.89028168 2.25620842 C157.81738297 2.50065178 171.74450881 2.74361666 185.67166901 2.98468208 C186.54426197 2.99978677 187.41685493 3.01489146 188.31589011 3.03045387 C192.75005974 3.107203 197.1842298 3.18392746 201.61840001 3.26064301 C232.92661946 3.80235629 264.2347801 4.34740123 295.54290771 4.89439392 C325.79645614 5.42295621 356.05003354 5.94981204 386.3036499 6.47447205 C387.23496859 6.4906236 388.16628728 6.50677515 389.12582774 6.52341614 C397.55456989 6.66959192 405.98331231 6.81575181 414.412055 6.96189615 C448.65051303 7.5555658 482.88895127 8.1503767 517.12738037 8.74571228 C517.98921863 8.76069776 518.85105688 8.77568325 519.73901145 8.79112284 C540.6527288 9.15477954 561.56643897 9.51884438 582.48013046 9.88398486 C584.04778943 9.91135505 585.6154484 9.93872509 587.18310738 9.96609497 C587.95082611 9.97949882 588.71854484 9.99290268 589.50952777 10.00671271 C594.72343783 10.09772627 599.93735119 10.18854823 605.1512661 10.27928352 C607.28192991 10.31638007 609.41259364 10.35348191 611.5432573 10.39058732 C612.93809358 10.41487178 614.33293009 10.43914313 615.72776684 10.46340111 C623.06020515 10.59094689 630.39261759 10.7197401 637.72497034 10.85213745 C640.26562863 10.89793738 642.80628742 10.94370997 645.34694672 10.98945427 C647.20035476 11.02285054 647.20035476 11.02285054 649.09120539 11.05692147 C656.53977138 11.18945519 663.98841744 11.30853603 671.43737434 11.41683246 C676.24547885 11.48762104 681.05347526 11.56455245 685.86147156 11.64230854 C688.06784311 11.67642195 690.27426036 11.70773582 692.48071751 11.73577046 C710.98644396 11.97206279 729.65900219 12.64446416 747.89300537 16.06211853 C749.30658325 16.3197699 749.30658325 16.3197699 750.74871826 16.58262634 C775.91844619 21.30445801 800.19161142 28.97843249 823.20550537 40.24961853 C824.0517749 40.6605072 824.89804443 41.07139587 825.7699585 41.49473572 C847.58167976 52.18819756 868.06936606 65.70159352 885.95550537 82.18321228 C887.93997358 84.00575339 889.96336429 85.75745411 892.01800537 87.49961853 C901.65754215 95.9293349 910.32260861 105.16556386 918.20550537 115.24961853 C919.08558228 116.3406202 919.96716304 117.43041003 920.85003662 118.51914978 C931.96672998 132.30878421 940.97761116 147.00819046 949.63031006 162.44200134 C951.21384635 165.26448543 952.80591554 168.08198077 954.40081787 170.89805603 C957.12614429 175.71050733 959.84615332 180.52593444 962.56439209 185.34239197 C965.2759956 190.14598831 967.99090633 194.94771459 970.70550537 199.74961853 C971.7888548 201.6662761 972.87218812 203.58294277 973.95550537 205.49961853 C974.49175537 206.44836853 975.02800537 207.39711853 975.58050537 208.37461853 C998.87217204 249.58295186 1022.1638387 290.7912852 1045.45550537 331.99961853 C1045.9916748 332.9482074 1046.52784424 333.89679626 1047.08026123 334.87413025 C1048.16447271 336.79238815 1049.24861977 338.71068247 1050.33270264 340.62901306 C1053.0270753 345.39663331 1055.72253485 350.1636323 1058.42034912 354.92930603 C1064.65595597 365.94778316 1070.85982514 376.98328124 1077.03411865 388.03623962 C1080.32099418 393.9118851 1083.63880926 399.76793229 1086.996521 405.6033783 C1089.41513967 409.80995849 1091.8147376 414.02715754 1094.20550537 418.24961853 C1094.60575928 418.95393005 1095.00601318 419.65824158 1095.418396 420.38389587 C1137.86269149 495.67371306 1147.38365936 590.25051607 1124.92816162 673.28477478 C1119.67877258 691.82022811 1113.18210913 709.72304422 1105.20550537 727.24961853 C1104.56449889 728.69476188 1103.92386011 730.1400684 1103.28363037 731.58555603 C1095.66822051 748.52273314 1086.01209972 764.25468227 1075.78240967 779.71934509 C1071.68036993 785.93312309 1067.74874833 792.2179624 1063.95550537 798.62461853 C1059.96395134 805.36328929 1055.84528461 811.98671773 1051.55780029 818.54063416 C1047.54664735 824.68513676 1043.6490776 830.89727285 1039.76800537 837.12461853 C1035.26738873 844.34594692 1030.75753696 851.56057457 1026.20550537 858.74961853 C1021.67949814 865.90014257 1017.1866249 873.07088428 1012.70550537 880.24961853 C1005.76572737 891.36574843 998.77601231 902.44950336 991.76702881 913.52207947 C985.06731384 924.1084445 978.40666136 934.71838682 971.77264404 945.34605408 C967.45863756 952.25386591 963.1197104 959.14533253 958.76409912 966.02696228 C954.72127404 972.42001634 950.71086975 978.83304199 946.70550537 985.24961853 C939.76572737 996.36574843 932.77601231 1007.44950336 925.76702881 1018.52207947 C919.06731384 1029.1084445 912.40666136 1039.71838682 905.77264404 1050.34605408 C901.45863756 1057.25386591 897.1197104 1064.14533253 892.76409912 1071.02696228 C888.72127404 1077.42001634 884.71086975 1083.83304199 880.70550537 1090.24961853 C873.76572737 1101.36574843 866.77601231 1112.44950336 859.76702881 1123.52207947 C853.06731384 1134.1084445 846.40666136 1144.71838682 839.77264404 1155.34605408 C835.45863756 1162.25386591 831.1197104 1169.14533253 826.76409912 1176.02696228 C822.72127404 1182.42001634 818.71086975 1188.83304199 814.70550537 1195.24961853 C807.76572737 1206.36574843 800.77601231 1217.44950336 793.76702881 1228.52207947 C787.06731384 1239.1084445 780.40666136 1249.71838682 773.77264404 1260.34605408 C769.45863756 1267.25386591 765.1197104 1274.14533253 760.76409912 1281.02696228 C756.72127404 1287.42001634 752.71086975 1293.83304199 748.70550537 1300.24961853 C741.76572737 1311.36574843 734.77601231 1322.44950336 727.76702881 1333.52207947 C721.06731384 1344.1084445 714.40666136 1354.71838682 707.77264404 1365.34605408 C703.45863756 1372.25386591 699.1197104 1379.14533253 694.76409912 1386.02696228 C690.72127404 1392.42001634 686.71086975 1398.83304199 682.70550537 1405.24961853 C675.76572737 1416.36574843 668.77601231 1427.44950336 661.76702881 1438.52207947 C655.06731384 1449.1084445 648.40666136 1459.71838682 641.77264404 1470.34605408 C637.45863756 1477.25386591 633.1197104 1484.14533253 628.76409912 1491.02696228 C624.72127404 1497.42001634 620.71086975 1503.83304199 616.70550537 1510.24961853 C609.76572737 1521.36574843 602.77601231 1532.44950336 595.76702881 1543.52207947 C590.3986128 1552.00483011 585.04551401 1560.49651681 579.73236084 1569.01402283 C577.19598478 1573.07906199 574.65478959 1577.14107283 572.11224365 1581.20225525 C570.84086529 1583.23418159 569.57100834 1585.26706066 568.30267334 1587.30088806 C566.46401018 1590.24608781 564.61701085 1593.18590361 562.76800537 1596.12461853 C561.9542041 1597.43329895 561.9542041 1597.43329895 561.1239624 1598.76841736 C557.2194841 1604.94882214 552.88431979 1610.63577507 548.20550537 1616.24961853 C547.73024414 1616.82164001 547.25498291 1617.3936615 546.76531982 1617.98301697 C530.22644717 1637.50409833 507.82662823 1650.74693157 483.45550537 1658.06211853 C482.80726807 1658.25708923 482.15903076 1658.45205994 481.4911499 1658.65293884 C469.7737927 1661.96735218 458.19384614 1662.612618 446.09759521 1662.55943298 C445.22322209 1662.5579213 444.34884897 1662.55640962 443.44797969 1662.55485213 C413.87922192 1662.46834795 384.31928018 1660.92772223 354.78409741 1659.63529865 C348.62035259 1659.36566278 342.45646154 1659.09961847 336.2924614 1658.835886 C334.96083338 1658.77890267 334.96083338 1658.77890267 333.6023038 1658.72076816 C331.7973751 1658.64354156 329.99244616 1658.56632077 328.18751697 1658.48910574 C311.41115271 1657.77097649 294.63528902 1657.04167212 277.85957734 1656.30847821 C263.51841526 1655.68197942 249.17683114 1655.06600885 234.8348999 1654.4573822 C218.07150272 1653.7459954 201.3084319 1653.02752693 184.54579866 1652.29834539 C182.75540042 1652.22048528 180.96500171 1652.14263622 179.17460251 1652.06479836 C178.29423451 1652.02652295 177.41386651 1651.98824754 176.50682069 1651.94881227 C170.3513302 1651.68168884 164.19563826 1651.41958344 158.03984451 1651.15955162 C150.53851075 1650.84257053 143.0375546 1650.51791781 135.53696628 1650.18374559 C131.72284697 1650.0140087 127.90866784 1649.84750484 124.09400177 1649.69049072 C82.02181606 1647.95200323 46.93742142 1640.4319441 15.20550537 1611.24961853 C14.52101318 1610.63602478 13.836521 1610.02243103 13.13128662 1609.39024353 C-8.63181578 1588.89538719 -23.69212674 1556.08854358 -24.91705322 1526.26573181 C-25.59990877 1497.06020709 -25.59990877 1497.06020709 -21.79449463 1483.24961853 C-21.57406494 1482.44685486 -21.35363525 1481.64409119 -21.12652588 1480.81700134 C-14.79246642 1458.58914455 -2.87765964 1439.74823093 9.20550537 1420.24961853 C11.1478272 1417.09972012 13.08772484 1413.94833861 15.02728271 1410.79673767 C16.36151775 1408.62881028 17.6964865 1406.4613343 19.03216553 1404.29429626 C24.31833363 1395.71235254 29.55430423 1387.10084362 34.7774353 1378.48048401 C39.88679496 1370.04945141 45.03024189 1361.64043721 50.20550537 1353.24961853 C55.78151884 1344.20771381 61.32181952 1335.14512595 66.83050537 1326.06211853 C67.36585403 1325.1794632 67.36585403 1325.1794632 67.91201782 1324.27897644 C69.67571588 1321.3707972 71.43898061 1318.46235548 73.2020874 1315.55381775 C81.09849344 1302.53042519 89.02612134 1289.52716278 97.01800537 1276.56211853 C102.65565909 1267.41555739 108.2587228 1258.24888548 113.83050537 1249.06211853 C114.18713257 1248.47413483 114.54375977 1247.88615112 114.91119385 1247.28034973 C116.67516754 1244.37171332 118.4387033 1241.46281163 120.2020874 1238.55381775 C128.09849344 1225.53042519 136.02612134 1212.52716278 144.01800537 1199.56211853 C149.65565909 1190.41555739 155.2587228 1181.24888548 160.83050537 1172.06211853 C161.18713257 1171.47413483 161.54375977 1170.88615112 161.91119385 1170.28034973 C163.67516754 1167.37171332 165.4387033 1164.46281163 167.2020874 1161.55381775 C175.76245282 1147.43536959 184.36948111 1133.34694763 193.03387451 1119.292099 C198.31888907 1110.71052887 203.55478151 1102.10005591 208.7774353 1093.48048401 C213.88679496 1085.04945141 219.03024189 1076.64043721 224.20550537 1068.24961853 C229.78151884 1059.20771381 235.32181952 1050.14512595 240.83050537 1041.06211853 C241.18740448 1040.47368164 241.54430359 1039.88524475 241.91201782 1039.27897644 C243.67571588 1036.3707972 245.43898061 1033.46235548 247.2020874 1030.55381775 C255.09849344 1017.53042519 263.02612134 1004.52716278 271.01800537 991.56211853 C276.65565909 982.41555739 282.2587228 973.24888548 287.83050537 964.06211853 C288.36544617 963.18014297 288.36544617 963.18014297 288.91119385 962.28034973 C290.67516754 959.37171332 292.4387033 956.46281163 294.2020874 953.55381775 C302.76245282 939.43536959 311.36948111 925.34694763 320.03387451 911.292099 C325.31888907 902.71052887 330.55478151 894.10005591 335.7774353 885.48048401 C340.88679496 877.04945141 346.03024189 868.64043721 351.20550537 860.24961853 C358.58118645 848.28942404 365.87931503 836.28340767 373.16207886 824.26654053 C375.97120971 819.63265423 378.79070036 815.00514534 381.61297607 810.3792572 C383.88847089 806.64692817 386.15710105 802.91044601 388.42572021 799.17393494 C389.66496638 797.13776339 390.90774885 795.10374166 392.15325928 793.07139587 C413.35606516 758.47192042 427.5987446 722.82059155 417.78314209 681.49961853 C412.38160523 660.4596508 403.48071331 640.76364014 389.20550537 624.24961853 C388.7833374 623.74672302 388.36116943 623.24382751 387.9262085 622.72569275 C370.91172593 602.51939559 348.08065005 589.43786222 322.76800537 582.49961853 C321.69703613 582.20124084 321.69703613 582.20124084 320.60443115 581.89683533 C304.1575883 577.65688944 287.056103 577.72473188 270.19231743 577.2453779 C266.53240624 577.13964349 262.87277101 577.02502467 259.2130928 576.91156006 C252.85401081 576.7155957 246.49478323 576.52514162 240.13542175 576.33847618 C230.81241396 576.06480223 221.48967928 575.78257711 212.16698432 575.49846915 C196.77842672 575.02972604 181.38967354 574.56774923 166.00079346 574.10972595 C150.99033451 573.66292224 135.97999293 573.21243397 120.9697876 572.75718689 C120.04250403 572.72906331 119.11522046 572.70093973 118.15983739 572.67196392 C113.48005363 572.5300059 108.80027209 572.38797511 104.1204915 572.24591231 C43.79450189 570.41477763 -16.53218153 568.6069414 -76.8597362 566.82810599 C-83.97923444 566.61808048 -91.09869914 566.40694979 -98.21813965 566.19497681 C-99.16762615 566.16671285 -100.11711266 566.13844889 -101.09537148 566.10932845 C-104.7804205 565.99961129 -108.46546879 565.88987035 -112.15051126 565.77993381 C-122.22287429 565.4794839 -132.29534447 565.18377453 -142.36812401 564.89761013 C-148.40715344 564.72579722 -154.44602898 564.54918847 -160.48480034 564.36853272 C-163.80354036 564.26945272 -167.12228489 564.17345909 -170.44126892 564.08272743 C-206.03299322 563.10806082 -206.03299322 563.10806082 -220.41949463 559.06211853 C-221.20106934 558.84781189 -221.98264404 558.63350525 -222.78790283 558.41270447 C-241.1202879 553.15842404 -258.54928077 543.90445764 -272.79449463 531.24961853 C-273.57179932 530.60379822 -274.349104 529.95797791 -275.14996338 529.29258728 C-281.16183587 524.21198592 -285.99457372 518.46887088 -290.79449463 512.24961853 C-291.78062744 511.0217865 -291.78062744 511.0217865 -292.78668213 509.76914978 C-314.75804765 481.3122607 -322.09006823 445.69206176 -318.36090088 410.41368103 C-317.79417736 406.27736647 -316.89159149 402.27539829 -315.79449463 398.24961853 C-315.47182617 397.05924988 -315.47182617 397.05924988 -315.14263916 395.84483337 C-309.49875943 375.81729818 -299.39500601 358.42804564 -288.36480713 340.93711853 C-284.3483984 334.56672937 -280.44465591 328.12898035 -276.54449463 321.68711853 C-275.82475301 320.49949695 -275.10494478 319.31191574 -274.3850708 318.12437439 C-273.29226822 316.32150384 -272.19956793 314.51857178 -271.10722351 312.71542358 C-268.52618387 308.45505424 -265.94081175 304.19733734 -263.35308838 299.94102478 C-257.14277649 289.72499028 -250.93470021 279.50802206 -244.79449463 269.24961853 C-237.91719089 257.75974967 -230.95581617 246.32098193 -224.00006104 234.87852478 C-220.78190118 229.58416136 -217.5670197 224.28780778 -214.35195923 218.99156189 C-212.58294517 216.07749528 -210.81370839 213.1635639 -209.04449463 210.24961853 C-208.33616023 209.08295251 -207.6278269 207.91628584 -206.91949463 206.74961853 C-151.66949463 115.74961853 -151.66949463 115.74961853 -150.60710144 113.99983215 C-149.89836748 112.83248048 -149.18967815 111.66510171 -148.48103333 110.49769592 C-146.71669354 107.59128663 -144.95159522 104.68534355 -143.18487549 101.78038025 C-139.53865239 95.78303859 -135.90753438 89.77717363 -132.29840088 83.75743103 C-111.43154374 48.99088573 -89.09869439 21.36216662 -49.79449463 7.24961853 C-48.71039307 6.85129822 -47.6262915 6.45297791 -46.50933838 6.04258728 C-31.43191722 0.95324284 -15.79338197 -0.22160712 0 0 Z " fill="#0C5B9E" transform="translate(2240.7944946289063,1803.7503814697266)"/>
<path d="M0 0 C2.18493859 0.01235733 4.36988149 0.02397082 6.55482769 0.03489876 C30.36699901 0.18592967 54.17211047 0.7751443 77.97538972 1.41084814 C82.94401865 1.54271242 87.91275379 1.67031773 92.88149184 1.79799378 C104.60067453 2.09915654 116.31967733 2.40667629 128.03857422 2.71875 C138.70865742 3.00281113 149.37888659 3.28013406 160.04931641 3.55078125 C171.81091002 3.84910614 183.57235965 4.15243431 195.33364314 4.462762 C201.51116665 4.62573811 207.68872273 4.78679296 213.8664341 4.94250107 C219.65135706 5.0885971 225.43604689 5.2419153 231.22064018 5.4005127 C233.32263323 5.4570108 235.42469224 5.51112193 237.52681732 5.5624733 C247.87187701 5.8166607 258.16112645 6.24064665 268.46708679 7.20437622 C269.30027366 7.28199342 270.13346054 7.35961061 270.9918955 7.43957984 C315.10975233 11.89691236 355.37783258 34.70928036 383.87231445 68.41357422 C412.8091872 104.76780991 427.12604016 150.59993688 422.64013672 196.95605469 C419.10605989 227.71601755 407.62564114 255.18454655 390.68579102 280.92236328 C388.12476099 284.83817656 385.64347338 288.80388103 383.15356445 292.76513672 C382.15394413 294.34870978 381.15394411 295.93204323 380.15356445 297.51513672 C379.65856445 298.29888672 379.16356445 299.08263672 378.65356445 299.89013672 C374.15356445 307.01513673 374.15356445 307.01513673 372.65429688 309.38891602 C371.65178202 310.97627197 370.64934091 312.56367451 369.64697266 314.15112305 C367.18604482 318.04829067 364.72394734 321.94470772 362.2590332 325.83935547 C356.73702768 334.56783646 351.24518819 343.31435211 345.77856445 352.07763672 C340.37377443 360.7405798 334.91741549 369.36864923 329.42358398 377.9753418 C325.12730163 384.71414693 320.88137908 391.48319903 316.65356445 398.26513672 C311.29144066 406.86664664 305.87678023 415.43237882 300.4230957 423.97607422 C296.12700862 430.71465575 291.88122388 437.48344799 287.65356445 444.26513672 C282.29144066 452.86664664 276.87678023 461.43237882 271.4230957 469.97607422 C267.12700862 476.71465575 262.88122388 483.48344799 258.65356445 490.26513672 C253.29144066 498.86664664 247.87678023 507.43237882 242.4230957 515.97607422 C238.12700862 522.71465575 233.88122388 529.48344799 229.65356445 536.26513672 C224.29144066 544.86664664 218.87678023 553.43237882 213.4230957 561.97607422 C209.12700862 568.71465575 204.88122388 575.48344799 200.65356445 582.26513672 C195.29144066 590.86664664 189.87678023 599.43237882 184.4230957 607.97607422 C180.12700862 614.71465575 175.88122388 621.48344799 171.65356445 628.26513672 C166.29144066 636.86664664 160.87678023 645.43237882 155.4230957 653.97607422 C151.12700862 660.71465575 146.88122388 667.48344799 142.65356445 674.26513672 C137.29144066 682.86664664 131.87678023 691.43237882 126.4230957 699.97607422 C122.12700862 706.71465575 117.88122388 713.48344799 113.65356445 720.26513672 C108.29144066 728.86664664 102.87678023 737.43237882 97.4230957 745.97607422 C93.12700862 752.71465575 88.88122388 759.48344799 84.65356445 766.26513672 C79.85866457 773.95674931 75.03014399 781.6250474 70.15356445 789.26513672 C63.3288227 799.96280585 56.58257341 810.70799461 49.88598633 821.48632812 C48.28233761 824.05858428 46.66534789 826.62186389 45.04418945 829.18310547 C19.93093604 869.11033282 10.99453565 914.77076413 21.18481445 961.08935547 C31.2525832 1003.77985072 57.91910346 1043.24677317 95.1184082 1066.82373047 C125.11970406 1085.23749933 156.92004212 1092.74647537 191.84939575 1094.13084412 C193.46859625 1094.19998685 195.08777178 1094.26971619 196.70692432 1094.33997303 C201.10888746 1094.52934865 205.5111505 1094.71063795 209.91351032 1094.89052165 C214.68008993 1095.08677569 219.44633924 1095.29076732 224.21263123 1095.49386597 C232.4598581 1095.84433711 240.70726576 1096.19024883 248.95480728 1096.53323174 C260.90316035 1097.03030614 272.85110644 1097.53667589 284.79895817 1098.04564322 C304.21906245 1098.87286295 323.63934765 1099.69574036 343.05981445 1100.5144043 C344.2203072 1100.56332681 345.38079996 1100.61224933 346.57645915 1100.66265435 C359.51615192 1101.20804478 372.4558924 1101.75229036 385.39569092 1102.29516602 C390.08549028 1102.49193442 394.77528941 1102.68870851 399.46508789 1102.88549805 C400.62233471 1102.93405532 401.77958152 1102.98261258 402.97189642 1103.03264128 C422.31637951 1103.8445425 441.66051315 1104.66447053 461.00439155 1105.49065167 C472.91114672 1105.99885353 484.81814921 1106.50026347 496.72556631 1106.9927168 C504.89516725 1107.33109661 513.06442991 1107.67696386 521.23347326 1108.02854543 C525.93472977 1108.23063248 530.6360609 1108.42945879 535.33783913 1108.61905479 C594.59567788 1111.01567073 643.36055435 1123.6722805 685.09692383 1168.01025391 C708.25232968 1193.39763857 723.54641606 1228.11434221 727.15356445 1262.26513672 C727.31791992 1263.65925781 727.31791992 1263.65925781 727.4855957 1265.08154297 C732.2199522 1311.47823663 716.63893633 1350.45546057 693.15356445 1389.26513672 C692.59894531 1390.18182129 692.04432617 1391.09850586 691.47290039 1392.04296875 C688.010806 1397.75613269 684.53115458 1403.45848237 681.04858398 1409.15917969 C677.63669766 1414.75129742 674.23944683 1420.35230693 670.84106445 1425.95263672 C669.40361551 1428.32115729 667.96609608 1430.68963508 666.52856445 1433.05810547 C666.16955551 1433.64964417 665.81054657 1434.24118286 665.44065857 1434.85064697 C662.86747835 1439.09009544 660.29214839 1443.32823346 657.71606445 1447.56591797 C651.50491153 1457.78483247 645.29525782 1468.00424756 639.15356445 1478.26513672 C634.45408013 1486.11653615 629.71700746 1493.94479951 624.96606445 1501.76513672 C624.60823883 1502.35415771 624.25041321 1502.94317871 623.88174438 1503.55004883 C620.93515031 1508.39997693 617.98718578 1513.24907167 615.03918457 1518.09814453 C612.4725197 1522.32009574 609.90638667 1526.54236954 607.34106445 1530.76513672 C606.98383301 1531.35314056 606.62660156 1531.94114441 606.25854492 1532.54696655 C601.80591634 1539.87752904 597.37195829 1547.2188803 592.96606445 1554.57763672 C591.53665802 1556.96055316 590.1067424 1559.34316294 588.67651367 1561.72558594 C587.59850748 1563.52318459 586.52217533 1565.32178764 585.44702148 1567.12109375 C558.10870644 1612.82419232 523.19537928 1648.48158591 469.96606445 1662.01513672 C448.5167847 1667.23471792 427.45915622 1667.59088509 405.48727417 1666.91152382 C403.54437019 1666.85417372 403.54437019 1666.85417372 401.56221563 1666.79566503 C397.99923705 1666.69042829 394.43634697 1666.58242977 390.87346624 1666.47393768 C386.98483704 1666.35602575 383.09612997 1666.24073372 379.20743275 1666.12509096 C371.50927853 1665.89575158 363.81119859 1665.66400292 356.11313937 1665.43149937 C346.88629992 1665.15293524 337.65938283 1664.87698195 328.43246391 1664.60106479 C306.13852414 1663.93426857 283.84472241 1663.26291142 261.55093433 1662.59106629 C250.99791478 1662.27307526 240.4448776 1661.95567079 229.89183814 1661.63834112 C193.74351971 1660.55135475 157.59522895 1659.46345494 121.44703674 1658.37227821 C119.17982521 1658.3038419 116.91261367 1658.2354056 114.64540213 1658.16696932 C112.37283814 1658.09837057 110.10027414 1658.02977169 107.82771015 1657.9611727 C103.26884783 1657.82356016 98.70998546 1657.6859494 94.15112305 1657.54833984 C93.02079851 1657.51421998 91.89047397 1657.48010012 90.72589718 1657.44494632 C54.07717046 1656.33870814 17.42828469 1655.23785793 -19.22070175 1654.14026015 C-58.00007722 1652.97883998 -96.7793073 1651.81268089 -135.55837631 1650.64107168 C-139.81819355 1650.5123897 -144.07801136 1650.38372665 -148.33782959 1650.25507736 C-149.38665887 1650.22339975 -150.43548815 1650.19172213 -151.51610014 1650.15908459 C-168.36571863 1649.65028768 -185.21546249 1649.14576558 -202.0652554 1648.64278188 C-219.0115899 1648.13680543 -235.95777227 1647.62595909 -252.90381294 1647.11023428 C-262.95917683 1646.80435471 -273.01463298 1646.50205408 -283.07026176 1646.20500763 C-289.80192795 1646.00578797 -296.53343765 1645.80175724 -303.26484419 1645.59395069 C-307.09036903 1645.47598453 -310.91592255 1645.35997292 -314.74168229 1645.24986406 C-328.0813016 1644.86464862 -341.40415451 1644.44099939 -354.70536804 1643.30490685 C-355.5995355 1643.22854857 -356.49370296 1643.1521903 -357.4149664 1643.07351813 C-396.71501031 1639.38994253 -431.27262009 1620.8553154 -459.84643555 1594.26513672 C-460.51288086 1593.65283203 -461.17932617 1593.04052734 -461.8659668 1592.40966797 C-479.11928372 1575.92941209 -489.97721099 1554.50332006 -501.02319336 1533.69384766 C-503.98541223 1528.1232261 -506.97862665 1522.5693661 -509.97143555 1517.01513672 C-510.84602417 1515.38995117 -510.84602417 1515.38995117 -511.73828125 1513.73193359 C-515.39664267 1506.93834569 -519.08084989 1500.15943204 -522.78393555 1493.39013672 C-527.67989388 1484.44025253 -532.50423208 1475.45286798 -537.31341553 1466.45617676 C-541.4786043 1458.66579457 -545.66928155 1450.89028689 -549.90893555 1443.14013672 C-557.22036698 1429.774732 -564.42464669 1416.35191075 -571.63745117 1402.93310547 C-577.67907095 1391.6950324 -583.72668371 1380.46089857 -589.84643555 1369.26513672 C-597.17577322 1355.85650164 -604.40262002 1342.39288949 -611.63745117 1328.93310547 C-617.65704645 1317.73600037 -623.68281552 1306.5430743 -629.78393555 1295.39013672 C-634.67989388 1286.44025253 -639.50423208 1277.45286798 -644.31341553 1268.45617676 C-648.4786043 1260.66579457 -652.66928155 1252.89028689 -656.90893555 1245.14013672 C-664.22036698 1231.774732 -671.42464669 1218.35191075 -678.63745117 1204.93310547 C-686.97470725 1189.42023563 -686.97470725 1189.42023563 -695.38208008 1173.9453125 C-696.35577574 1172.16317997 -697.32811418 1170.38030521 -698.29907227 1168.59667969 C-700.98702241 1163.65939141 -703.69510536 1158.73430315 -706.42456055 1153.81982422 C-715.11663963 1138.07271853 -722.6683582 1122.45555219 -727.65893555 1105.14013672 C-727.84206299 1104.50914063 -728.02519043 1103.87814453 -728.21386719 1103.22802734 C-732.06885056 1088.81513909 -733.40631188 1074.43872397 -733.28393555 1059.57763672 C-733.27787796 1058.3376442 -733.27787796 1058.3376442 -733.271698 1057.07260132 C-733.00535406 1018.01868892 -719.50052789 985.24344009 -698.49145508 952.82275391 C-695.45702689 948.10493413 -692.50049167 943.33830772 -689.53393555 938.57763672 C-688.25672681 936.5319795 -686.97938212 934.48640716 -685.7019043 932.44091797 C-685.06430176 931.41949707 -684.42669922 930.39807617 -683.76977539 929.34570312 C-680.63054331 924.31767185 -677.48836404 919.29148331 -674.34643555 914.26513672 C-673.09642091 912.26514587 -671.84642092 910.26514586 -670.59643555 908.26513672 C-663.09643555 896.26513672 -655.59643555 884.26513672 -648.09643555 872.26513672 C-647.167948 870.77953247 -647.167948 870.77953247 -646.22070312 869.26391602 C-644.97320307 867.26794843 -643.72564467 865.27201733 -642.47802734 863.27612305 C-639.31429372 858.21472756 -636.15163994 853.15266278 -632.9909668 848.08935547 C-626.81785807 838.20234394 -620.63017798 828.32528781 -614.39770508 818.47558594 C-608.48402015 809.12256946 -602.62939531 799.73264542 -596.76977539 790.34570312 C-593.63054331 785.31767185 -590.48836404 780.29148331 -587.34643555 775.26513672 C-586.09642091 773.26514587 -584.84642092 771.26514586 -583.59643555 769.26513672 C-561.09643555 733.26513672 -538.59643555 697.26513672 -516.09643555 661.26513672 C-515.167948 659.77953247 -515.167948 659.77953247 -514.22070312 658.26391602 C-512.97320307 656.26794843 -511.72564467 654.27201733 -510.47802734 652.27612305 C-507.31429372 647.21472756 -504.15163994 642.15266278 -500.9909668 637.08935547 C-494.81785807 627.20234394 -488.63017798 617.32528781 -482.39770508 607.47558594 C-476.48402015 598.12256946 -470.62939531 588.73264542 -464.76977539 579.34570312 C-461.63054331 574.31767185 -458.48836404 569.29148331 -455.34643555 564.26513672 C-454.09642091 562.26514587 -452.84642092 560.26514586 -451.59643555 558.26513672 C-424.09643555 514.26513672 -396.59643555 470.26513672 -369.09643555 426.26513672 C-368.47744385 425.27473389 -367.85845215 424.28433105 -367.22070312 423.26391602 C-365.97320307 421.26794843 -364.72564467 419.27201733 -363.47802734 417.27612305 C-360.31429372 412.21472756 -357.15163994 407.15266278 -353.9909668 402.08935547 C-347.81785807 392.20234394 -341.63017798 382.32528781 -335.39770508 372.47558594 C-329.48402015 363.12256946 -323.62939531 353.73264542 -317.76977539 344.34570312 C-314.63054331 339.31767185 -311.48836404 334.29148331 -308.34643555 329.26513672 C-307.09642091 327.26514587 -305.84642092 325.26514586 -304.59643555 323.26513672 C-282.09643555 287.26513672 -259.59643555 251.26513672 -237.09643555 215.26513672 C-236.47744385 214.27473389 -235.85845215 213.28433105 -235.22070312 212.26391602 C-233.97320307 210.26794843 -232.72564467 208.27201733 -231.47802734 206.27612305 C-228.31429372 201.21472756 -225.15163994 196.15266278 -221.9909668 191.08935547 C-215.81785807 181.20234394 -209.63017798 171.32528781 -203.39770508 161.47558594 C-197.48402015 152.12256946 -191.62939531 142.73264542 -185.76977539 133.34570312 C-182.01165154 127.32640803 -178.25014651 121.30922405 -174.48754883 115.29272461 C-171.26962417 110.14632139 -168.05630675 104.99712514 -164.8503418 99.84326172 C-137.19529722 55.40955413 -104.88914381 21.19046926 -53.40893555 5.95263672 C-52.6487915 5.72229736 -51.88864746 5.49195801 -51.10546875 5.25463867 C-34.31671471 0.56191585 -17.32012827 -0.18271315 0 0 Z " fill="#0C5B9E" transform="translate(1592.846435546875,2701.73486328125)"/>
<path d="M0 0 C13.7907871 15.0947237 18.08332063 34.36087226 18.98828125 54.1875 C19.05103996 55.54993584 19.05103996 55.54993584 19.11506653 56.93989563 C19.5744246 67.74312921 19.63637587 78.54386603 19.625 89.35546875 C19.62409363 90.96148453 19.62409363 90.96148453 19.62316895 92.59994507 C19.54119633 146.70037106 17.49618874 195.90794329 -19.5625 238.66796875 C-20.42621992 239.68993759 -21.28813029 240.71343789 -22.1484375 241.73828125 C-28.39370816 249.17205132 -34.72140587 256.5359263 -41.04638672 263.90185547 C-43.55350985 266.8223915 -46.05787328 269.74529186 -48.5625 272.66796875 C-49.56248659 273.83464691 -50.5624866 275.00131357 -51.5625 276.16796875 C-52.305 277.03421875 -52.305 277.03421875 -53.0625 277.91796875 C-54.5625 279.66796875 -56.0625 281.41796875 -57.5625 283.16796875 C-58.05741943 283.74538818 -58.55233887 284.32280762 -59.06225586 284.91772461 C-60.06301606 286.08525103 -61.06382992 287.25273145 -62.06469727 288.42016602 C-64.55350676 291.32330504 -67.04140091 294.22721824 -69.52734375 297.1328125 C-88.91235219 319.78424107 -88.91235219 319.78424107 -96.3125 327.91796875 C-99.30113253 331.21089841 -102.14633605 334.58113644 -104.9375 338.04296875 C-108.61886689 342.59657587 -112.49024473 346.90379391 -116.47607422 351.18701172 C-119.46662641 354.41973079 -122.30021685 357.73484541 -125.0625 361.16796875 C-128.6981405 365.68655051 -132.53086402 369.94780204 -136.47875977 374.18969727 C-139.44965628 377.40095925 -142.26211077 380.6942469 -145 384.10546875 C-148.84295479 388.88338213 -152.93081329 393.35791859 -157.11865234 397.82958984 C-161.04156854 402.0422598 -164.68161024 406.4321043 -168.28515625 410.921875 C-170.78076469 413.93115927 -173.40015143 416.80735529 -176.0625 419.66796875 C-179.53669243 423.4012413 -182.8631871 427.19167986 -186.0625 431.16796875 C-189.6981405 435.68655051 -193.53086402 439.94780204 -197.47875977 444.18969727 C-200.44965628 447.40095925 -203.26211077 450.6942469 -206 454.10546875 C-209.84295479 458.88338213 -213.93081329 463.35791859 -218.11865234 467.82958984 C-222.04156854 472.0422598 -225.68161024 476.4321043 -229.28515625 480.921875 C-232.22327451 484.46475174 -235.34481178 487.82238647 -238.47900391 491.18994141 C-241.44980066 494.40113748 -244.26218321 497.69433716 -247 501.10546875 C-250.84295479 505.88338213 -254.93081329 510.35791859 -259.11865234 514.82958984 C-263.04156854 519.0422598 -266.68161024 523.4321043 -270.28515625 527.921875 C-273.22327451 531.46475174 -276.34481178 534.82238647 -279.47900391 538.18994141 C-282.44980066 541.40113748 -285.26218321 544.69433716 -288 548.10546875 C-291.84295479 552.88338213 -295.93081329 557.35791859 -300.11865234 561.82958984 C-304.04156854 566.0422598 -307.68161024 570.4321043 -311.28515625 574.921875 C-314.22327451 578.46475174 -317.34481178 581.82238647 -320.47900391 585.18994141 C-323.44980066 588.40113748 -326.26218321 591.69433716 -329 595.10546875 C-332.84295479 599.88338213 -336.93081329 604.35791859 -341.11865234 608.82958984 C-345.04156854 613.0422598 -348.68161024 617.4321043 -352.28515625 621.921875 C-355.22327451 625.46475174 -358.34481178 628.82238647 -361.47900391 632.18994141 C-364.44980066 635.40113748 -367.26218321 638.69433716 -370 642.10546875 C-373.84295479 646.88338213 -377.93081329 651.35791859 -382.11865234 655.82958984 C-386.04156854 660.0422598 -389.68161024 664.4321043 -393.28515625 668.921875 C-396.22327451 672.46475174 -399.34481178 675.82238647 -402.47900391 679.18994141 C-405.44980066 682.40113748 -408.26218321 685.69433716 -411 689.10546875 C-414.84360057 693.88418503 -418.93210164 698.35954562 -423.12084961 702.83178711 C-426.23803945 706.17896202 -429.19823798 709.59801898 -432.0625 713.16796875 C-435.40551959 717.33463085 -438.91365137 721.27216687 -442.5625 725.16796875 C-447.02124444 729.92885869 -451.2004783 734.83264695 -455.28515625 739.921875 C-458.22553592 743.46747861 -461.34801599 746.82925953 -464.48779297 750.1965332 C-467.39408067 753.33332654 -470.10843884 756.55689664 -472.75 759.91796875 C-476.79428113 764.96548241 -481.26755314 769.48156085 -485.86328125 774.02734375 C-486.6046936 774.76452637 -487.34610596 775.50170898 -488.10998535 776.26123047 C-489.92536313 778.06564141 -491.74290325 779.86781405 -493.5625 781.66796875 C-492.59099754 781.66856584 -491.61949509 781.66916293 -490.61855316 781.66977811 C-433.01611514 781.70553278 -375.41372528 781.76233918 -317.8113364 781.8458897 C-310.89212814 781.85592042 -303.97291962 781.86575572 -297.05371094 781.87548828 C-296.36518576 781.87646009 -295.67666058 781.87743189 -294.967271 781.87843315 C-272.67127358 781.90981091 -250.37528824 781.92829738 -228.07927257 781.94006122 C-204.50652875 781.95256899 -180.93385241 781.97984542 -157.3611412 782.02258182 C-143.24709513 782.04769574 -129.13313852 782.06108755 -115.01906979 782.05939832 C-105.33536386 782.05936853 -95.65174894 782.07402954 -85.96807849 782.10013303 C-80.38440471 782.11475409 -74.80091755 782.12300316 -69.21722794 782.11377144 C-64.09674416 782.1054491 -58.97663442 782.11573629 -53.85620594 782.14030537 C-52.01206554 782.14596189 -50.16788936 782.14501597 -48.32376003 782.1364812 C-28.84213379 782.05410414 -10.37752015 785.32848265 4.3125 799.31640625 C26.28812286 823.63501831 25.81507184 855.89253293 25.69824219 886.85913086 C25.68749371 890.23244129 25.69823482 893.60522079 25.7109375 896.97851562 C25.7185914 907.77925105 25.46296795 918.50711784 24.5625 929.2734375 C24.48710999 930.19516251 24.41171997 931.11688751 24.33404541 932.06654358 C22.69411404 949.55016856 15.87107176 964.21307011 3.4375 976.66796875 C2.79941406 977.31765625 2.16132813 977.96734375 1.50390625 978.63671875 C-11.74878436 991.20060007 -28.8487056 993.82786276 -46.32782078 993.79939651 C-48.08999043 993.80247547 -48.08999043 993.80247547 -49.88775948 993.80561662 C-53.14534396 993.81029297 -56.40289339 993.81051501 -59.66047967 993.80883903 C-63.20587705 993.80810605 -66.75126709 993.81313527 -70.29666132 993.81741405 C-77.3270595 993.82498435 -84.35745009 993.82718661 -91.38785192 993.8277431 C-99.8095649 993.82865769 -108.23127087 993.83532805 -116.65298083 993.84208992 C-137.00651515 993.85814212 -157.36004871 993.86405222 -177.71358822 993.86883867 C-187.34347532 993.8711753 -196.97336181 993.87477801 -206.60324844 993.87853405 C-239.57226768 993.89136856 -272.54128658 993.90208807 -305.51030827 993.90553665 C-307.57950039 993.90575828 -309.64869251 993.90598007 -311.71788463 993.906202 C-313.79204853 993.90642264 -315.86621244 993.90664313 -317.94037634 993.90686345 C-322.10144556 993.907306 -326.26251477 993.90775312 -330.42358398 993.90820312 C-331.45528549 993.90831252 -332.486987 993.90842191 -333.5499522 993.90853461 C-367.00340504 993.9121653 -400.45683621 993.9280863 -433.91028075 993.95139349 C-469.28575413 993.97599467 -504.66121514 993.98970961 -540.03669733 993.99090457 C-543.92070449 993.99107602 -547.80471164 993.99129145 -551.6887188 993.991539 C-552.64505873 993.99159477 -553.60139867 993.99165054 -554.5867186 993.991708 C-569.97020509 993.99285815 -585.35366933 994.00387709 -600.73714831 994.01842606 C-616.20202351 994.03279901 -631.66687019 994.03602351 -647.13175023 994.02798608 C-656.31575272 994.02353369 -665.49966314 994.02737481 -674.68365351 994.04322459 C-680.82431216 994.05299076 -686.96490647 994.05178073 -693.10556456 994.04178836 C-696.60043642 994.03640815 -700.09513176 994.03564773 -703.58998884 994.04829708 C-726.88932576 994.11683841 -746.56027054 993.2614896 -765.02734375 977.2421875 C-778.89361784 963.16225741 -785.53178001 943.68209535 -785.76782227 924.15405273 C-785.77772186 923.43734406 -785.78762146 922.72063538 -785.79782104 921.98220825 C-785.82923753 919.62619222 -785.85416168 917.27015729 -785.87890625 914.9140625 C-785.89953903 913.25040751 -785.92053683 911.586757 -785.94187927 909.92311096 C-785.98574426 906.43224713 -786.02665333 902.94136616 -786.06518555 899.45043945 C-786.11385646 895.04310714 -786.16754297 890.63585599 -786.22314358 886.22860622 C-786.40967376 871.41746826 -786.59431172 856.60535127 -786.6328125 841.79296875 C-786.63692642 840.9740062 -786.64104034 840.15504364 -786.64527893 839.31126404 C-786.63983024 791.09128217 -765.79269883 749.16981031 -734.96972656 713.30908203 C-732.65309063 710.60741188 -730.35889793 707.88683847 -728.0625 705.16796875 C-727.14462609 704.08325307 -726.22665732 702.99861766 -725.30859375 701.9140625 C-723.48705368 699.76145089 -721.66684671 697.60772256 -719.84765625 695.453125 C-712.62160621 686.8979075 -705.33798342 678.39304996 -698.04199219 669.89746094 C-692.69563895 663.67093636 -687.3577217 657.43807485 -682.0625 651.16796875 C-676.7659411 644.89627926 -671.42645577 638.66205804 -666.07861328 632.43408203 C-663.57149015 629.513546 -661.06712672 626.59064564 -658.5625 623.66796875 C-657.56251341 622.50129059 -656.5625134 621.33462393 -655.5625 620.16796875 C-654.82 619.30171875 -654.82 619.30171875 -654.0625 618.41796875 C-604.5625 560.66796875 -555.0625 502.91796875 -336.06225586 247.41772461 C-335.06301604 246.25191771 -334.06382977 245.08606489 -333.06469727 243.92016602 C-330.55350539 240.98996477 -328.04136607 238.06058584 -325.52734375 235.1328125 C-320.21328141 228.94234497 -314.90818783 222.74476089 -309.65185547 216.50512695 C-307.3090496 213.72458406 -304.95254026 210.95782342 -302.5703125 208.2109375 C-301.83083374 207.35254272 -301.83083374 207.35254272 -301.07641602 206.47680664 C-300.14405563 205.39514312 -299.20738984 204.31716762 -298.26538086 203.24389648 C-296.01168722 200.61905632 -294.09485201 197.98656541 -292.41186523 194.97607422 C-291.80157471 193.88439941 -291.19128418 192.79272461 -290.5625 191.66796875 C-291.50226291 191.66910791 -292.44202582 191.67024707 -293.4102664 191.67142075 C-349.13381121 191.73870127 -404.85735225 191.79004368 -460.58092955 191.82116474 C-467.27481899 191.82491677 -473.96870834 191.82879625 -480.66259766 191.83276367 C-481.3287002 191.83315595 -481.99480273 191.83354823 -482.6810902 191.83395239 C-504.2495752 191.84672362 -525.81803653 191.86924795 -547.38650721 191.89686041 C-570.19078713 191.92600178 -592.99505489 191.94396541 -615.79935312 191.95023423 C-629.45276458 191.95434631 -643.10610807 191.9673244 -656.7594986 191.99171815 C-666.12779813 192.00760126 -675.49606263 192.01236327 -684.86437464 192.00847288 C-690.26576411 192.00655536 -695.66703497 192.00945206 -701.06840324 192.02558517 C-706.02226852 192.04027295 -710.97593636 192.04086393 -715.92981106 192.03066543 C-717.71339883 192.02940651 -719.49699933 192.0331364 -721.28056234 192.0426183 C-741.47877137 192.1436744 -760.03546057 189.67627123 -775.3605957 175.20239258 C-793.09866865 157.31437819 -795.88354476 134.6232942 -795.86328125 110.5546875 C-795.86717805 108.6123699 -795.87151471 106.67005313 -795.87626648 104.72773743 C-795.88369131 100.67238595 -795.88346489 96.61712159 -795.87817383 92.56176758 C-795.87238701 87.40459542 -795.88930964 82.24778332 -795.9125185 77.09067059 C-795.92736148 73.08311431 -795.92811323 69.07564263 -795.92500877 65.06806374 C-795.92551678 63.16855978 -795.93065489 61.26905042 -795.94082069 59.36957359 C-796.04652911 36.85838138 -792.37491902 16.18075206 -776.5 -1.01953125 C-761.96936181 -14.73881401 -743.47576235 -18.48680084 -724.06078339 -18.47348976 C-722.90235282 -18.47663158 -721.74392226 -18.47977339 -720.55038774 -18.48301041 C-717.33399736 -18.49072967 -714.11763759 -18.49401752 -710.90123939 -18.49543801 C-707.40222821 -18.49807184 -703.90322997 -18.50644228 -700.40422678 -18.51408041 C-694.27120446 -18.52667249 -688.13818534 -18.53557736 -682.00515366 -18.54207039 C-672.88475365 -18.55173613 -663.76436924 -18.56705112 -654.64397923 -18.58348246 C-638.35356762 -18.61263914 -622.06315151 -18.63611779 -605.77272765 -18.65718822 C-591.51179683 -18.67564481 -577.25087009 -18.69592535 -562.98994446 -18.71802902 C-561.57153973 -18.72022312 -561.57153973 -18.72022312 -560.12448037 -18.72246154 C-556.28597619 -18.72840025 -552.44747202 -18.73434562 -548.60896787 -18.74030215 C-512.58452233 -18.79616625 -476.56007074 -18.84622672 -440.53561331 -18.89371727 C-408.53903309 -18.9359346 -376.54246454 -18.98335573 -344.54589844 -19.03515625 C-308.59982962 -19.09333336 -272.65375822 -19.14819176 -236.70767641 -19.19775712 C-232.87364482 -19.20305292 -229.03961324 -19.20835708 -225.20558167 -19.21366501 C-224.26154358 -19.21496908 -223.3175055 -19.21627315 -222.34486021 -19.21761675 C-208.09940483 -19.23735404 -193.85395486 -19.25962343 -179.60850525 -19.28313065 C-163.40177135 -19.30986061 -147.19503681 -19.33293663 -130.98829108 -19.35121562 C-121.92207481 -19.36154347 -112.8558729 -19.37466405 -103.78966698 -19.39185392 C-97.72749184 -19.4030628 -91.66531939 -19.41053156 -85.60313556 -19.41500678 C-82.15311178 -19.41765619 -78.70311064 -19.42187044 -75.25309652 -19.43063839 C-20.35616626 -19.55730508 -20.35616626 -19.55730508 0 0 Z " fill="#767677" transform="translate(4630.5625,2523.33203125)"/>
<path d="M0 0 C66.99 0 133.98 0 203 0 C203.0093457 19.50416016 203.01869141 39.00832031 203.02832031 59.10351562 C203.03514699 72.12976104 203.04204094 85.15600616 203.04986572 98.18225098 C203.05036092 99.00989114 203.05085612 99.83753131 203.05136632 100.69025148 C203.06811654 128.56641437 203.09033277 156.44257013 203.11663818 184.31872559 C203.11792445 185.68402042 203.11792445 185.68402042 203.1192367 187.07689697 C203.13790494 206.86077998 203.15745773 226.64466201 203.17792095 246.42854324 C203.18795161 256.13139845 203.19778692 265.83425386 203.20751953 275.53710938 C203.20849134 276.50262922 203.20946314 277.46814907 203.2104644 278.4629271 C203.24183789 309.72434342 203.26032733 340.98575113 203.27209247 372.24718047 C203.2842571 404.38848471 203.30950565 436.529753 203.35107614 468.67103329 C203.35694971 473.21702395 203.36267465 477.76301478 203.36830902 482.30900574 C203.36997921 483.65100078 203.36997921 483.65100078 203.37168314 485.02010683 C203.38918192 499.38687404 203.39300203 513.75361346 203.39162921 528.1203899 C203.39054178 542.58495632 203.4040499 557.04945204 203.43216428 571.51399165 C203.44840537 580.09397258 203.45374798 588.67379313 203.44297175 597.25378355 C203.43685874 603.00361384 203.44548362 608.7533069 203.4654923 614.50310514 C203.47644801 617.76755305 203.47930455 621.03161945 203.46851245 624.29607707 C203.36835366 657.45973156 207.9704966 690.6041623 231 716 C231.52722656 716.62003906 232.05445312 717.24007812 232.59765625 717.87890625 C252.47885102 739.79398284 286.75380968 747.26089643 315 749 C321.31481356 749.19230908 327.63483006 749.15752792 333.9519043 749.16113281 C335.85544936 749.16576939 337.75899352 749.17079516 339.66253662 749.17617798 C344.81002641 749.18922845 349.9575032 749.19573321 355.10500693 749.20018864 C358.33299985 749.20313301 361.56098932 749.20724043 364.78898048 749.21169281 C374.92309701 749.22535218 385.05720553 749.23502486 395.19133061 749.2388947 C406.82430574 749.24336319 418.45716267 749.26086133 430.0901019 749.2898953 C439.12332283 749.31164464 448.15651085 749.32160609 457.18975765 749.32293582 C462.5649181 749.32397498 467.93996722 749.32968963 473.31509972 749.34775543 C507.11064087 749.45477872 540.08574013 749.4528893 571 734 C572.60294922 733.19949219 572.60294922 733.19949219 574.23828125 732.3828125 C582.26713135 728.02994695 588.58901396 722.41098604 595 716 C595.66902344 715.33097656 596.33804688 714.66195312 597.02734375 713.97265625 C621.38640067 687.84604871 623.46929383 649.6457016 623.39872742 615.94363403 C623.40417777 613.27238846 623.41080979 610.60116909 623.41886932 607.92993248 C623.4339348 602.1616325 623.43818285 596.39340726 623.43499184 590.62508965 C623.43029784 582.04807471 623.44289155 573.47114334 623.45882157 564.89414498 C623.4851498 550.4604177 623.49776447 536.02670961 623.50238609 521.59296036 C623.50700323 507.31518428 623.51782434 493.03743474 623.53681374 478.75967026 C623.53858393 477.4248072 623.53858393 477.4248072 623.54038988 476.06297721 C623.54641584 471.5430253 623.55255151 467.02307354 623.55872939 462.50312184 C623.60221634 430.54245282 623.6319705 398.58178444 623.65356445 366.62109375 C623.67456582 335.5843002 623.70183994 304.54752245 623.73754883 273.51074219 C623.73864831 272.55295781 623.73974778 271.59517344 623.74088058 270.60836529 C623.75192953 260.98933064 623.76310539 251.37029614 623.7743742 241.75126174 C623.79732431 222.15862804 623.81942774 202.5659934 623.84101868 182.97335815 C623.8420123 182.07264916 623.84300591 181.17194016 623.84402964 180.24393695 C623.87442206 152.65303487 623.9012281 125.06213094 623.92448425 97.47122192 C623.92547617 96.29691255 623.92547617 96.29691255 623.92648812 95.09887976 C623.95320961 63.39925492 623.97612682 31.69962709 624 0 C689.01 0 754.02 0 821 0 C821.04026156 76.25230407 821.04026156 76.25230407 821.05130005 99.85794067 C821.05169472 100.69981121 821.05208938 101.54168175 821.05249601 102.40906351 C821.06575631 130.77164017 821.0762534 159.13421716 821.08468628 187.49679565 C821.08496239 188.42308072 821.08523851 189.34936579 821.08552299 190.3037201 C821.09151001 210.43859278 821.09705021 230.57346557 821.10213066 250.70833851 C821.10462514 260.58371658 821.10721828 270.45909462 821.10986328 280.33447266 C821.1101248 281.31714606 821.11038632 282.29981947 821.11065576 283.31227086 C821.11916525 315.1137755 821.13417796 346.915273 821.15259444 378.71677333 C821.17149891 411.42064059 821.18377998 444.12450391 821.18782998 476.82837656 C821.18840622 481.45677045 821.18905749 486.08516432 821.18975449 490.7135582 C821.18988933 491.62441482 821.19002418 492.53527145 821.19016311 493.47372979 C821.19251857 508.08478756 821.20177302 522.69583305 821.21366407 537.30688582 C821.22549453 552.02693334 821.22992204 566.74696879 821.22700275 581.46702088 C821.22549162 590.19234522 821.22944638 598.9176251 821.24159509 607.64294134 C821.2491829 613.49728601 821.24926664 619.3516021 821.24366363 625.20594886 C821.24068955 628.52512209 821.24173767 631.84414586 821.24976636 635.16332008 C821.4344277 716.31827522 805.24783062 798.78130216 750 861 C749.54560547 861.51755859 749.09121094 862.03511719 748.62304688 862.56835938 C743.40503025 868.50875239 738.06789837 873.94164689 732 879 C731.06800781 879.81984375 730.13601563 880.6396875 729.17578125 881.484375 C665.46357524 937.27387153 577.80138318 950.16955191 496.03442383 950.14526367 C493.96286459 950.14826826 491.89130591 950.15167368 489.81974792 950.15544128 C484.26927201 950.16415616 478.71881158 950.1666141 473.16832948 950.16725707 C469.67633742 950.16797506 466.18434913 950.17012334 462.69235802 950.17275429 C450.44049206 950.18196826 438.18863688 950.18609439 425.93676758 950.18530273 C414.62963383 950.18470389 403.32254809 950.195228 392.01542646 950.2110464 C382.21571695 950.22425296 372.41602288 950.22948117 362.61630458 950.22884732 C356.80444083 950.22859604 350.9926198 950.23123712 345.18076515 950.24202538 C323.89227518 950.27873211 302.63580036 950.26358744 281.3737793 949.0949707 C280.64045683 949.05501933 279.90713435 949.01506795 279.15158999 948.97390592 C245.78904698 947.09599645 212.80112901 941.33426578 181 931 C180.08734375 930.70399902 179.1746875 930.40799805 178.234375 930.10302734 C132.91705651 915.12403511 90.42988907 887.99310094 61 850 C60.37206543 849.1946582 60.37206543 849.1946582 59.73144531 848.37304688 C33.68388399 814.73713003 18.06308069 775.31344129 9 734 C8.79681152 733.08186523 8.59362305 732.16373047 8.38427734 731.21777344 C5.74113662 718.94456727 4.24038923 706.52384131 2.8125 694.0625 C2.7275528 693.33611328 2.64260559 692.60972656 2.55508423 691.86132812 C0.00601802 669.78294939 -0.14717266 647.6442115 -0.12025452 625.44374084 C-0.12013304 622.7303954 -0.12152708 620.01705118 -0.12284368 617.30370611 C-0.12489788 611.44651027 -0.12330754 605.58932469 -0.11920547 599.73213005 C-0.11312318 591.02295375 -0.11287402 582.31378378 -0.11374746 573.60460574 C-0.11505574 558.9481589 -0.11174146 544.2917166 -0.10573006 529.63527107 C-0.0997992 515.13783813 -0.09596133 500.64040709 -0.09487724 486.14297295 C-0.0948085 485.23926951 -0.09473976 484.33556608 -0.09466894 483.40447769 C-0.09433058 478.81443441 -0.0940292 474.22439113 -0.09374207 469.63434785 C-0.09164546 437.1806284 -0.08491874 404.72691142 -0.07543945 372.27319336 C-0.06624503 340.75821953 -0.05916632 309.24324638 -0.05493164 277.72827148 C-0.05473435 276.26938137 -0.05473435 276.26938137 -0.05453308 274.78101873 C-0.05321448 265.01322984 -0.05193868 255.24544094 -0.05069422 245.47765204 C-0.04815847 225.58214214 -0.04533722 205.68663228 -0.04234314 185.79112244 C-0.04220585 184.87649584 -0.04206856 183.96186924 -0.04192711 183.01952669 C-0.03770668 155.0030942 -0.03227696 126.98666213 -0.02565002 98.9702301 C-0.02546247 98.17530526 -0.02527491 97.38038041 -0.02508167 96.56136693 C-0.01746893 64.37424443 -0.00857328 32.18712226 0 0 Z " fill="#767677" transform="translate(4904,2536)"/>
<path d="M0 0 C66.66 0 133.32 0 202 0 C202.01458252 19.36316895 202.02916504 38.72633789 202.04418945 58.67626953 C202.05436591 71.6079206 202.06459267 84.53957149 202.07551575 97.47122192 C202.07620828 98.2928341 202.07690081 99.11444628 202.07761432 99.96095579 C202.10099112 127.63176079 202.12845622 155.30256015 202.15898132 182.97335815 C202.15997689 183.87678214 202.16097246 184.78020612 202.16199819 185.71100659 C202.18365931 205.34725935 202.20598219 224.98351131 202.22898628 244.61976255 C202.24026429 254.25008895 202.25139615 263.88041552 202.26245117 273.51074219 C202.26355374 274.46904934 202.2646563 275.42735649 202.26579228 276.41470326 C202.30142824 307.44758756 202.32742259 338.48047078 202.34838969 369.51336817 C202.36999643 401.41732178 202.40138478 433.32125129 202.44499113 465.22518277 C202.45115291 469.73667847 202.45720347 474.24817432 202.46318626 478.75967026 C202.46495759 480.09149394 202.46495759 480.09149394 202.46676469 481.45022315 C202.48544893 495.71323815 202.49389429 509.97624151 202.49846124 524.23926725 C202.50327858 538.59624926 202.51900055 552.95318713 202.54566566 567.31014545 C202.56116012 575.82831128 202.56848152 584.34638992 202.56376929 592.86456903 C202.5614404 598.57063887 202.5701081 604.27662694 202.58732411 609.98267101 C202.59679966 613.22372031 202.60018186 616.46455632 202.59339563 619.70561756 C202.52768496 654.67276519 206.71075927 691.30653582 231.8046875 717.92578125 C247.23222066 732.50232949 266.41668274 740.41979122 286.8125 745.1875 C287.46210693 745.34259033 288.11171387 745.49768066 288.78100586 745.6574707 C303.62611397 748.9000339 318.72904384 749.29779939 333.85424805 749.2746582 C335.77030127 749.279019 337.68635275 749.28420663 339.60240173 749.29014587 C344.75149631 749.3034017 349.90051688 749.30412957 355.04962516 749.30158257 C359.37532272 749.30050344 363.70100588 749.30542019 368.02670032 749.310188 C378.24754777 749.32123733 388.46835846 749.32174682 398.68920898 749.31567383 C409.17060239 749.30964096 419.65186133 749.32193825 430.13323182 749.3432439 C439.18866497 749.36096204 448.24405572 749.36684519 457.29950553 749.36360615 C462.68290454 749.36180898 468.06620766 749.36427033 473.44959068 749.37832069 C530.5684718 749.68602471 530.5684718 749.68602471 582 727 C582.91136719 726.33355469 583.82273438 725.66710938 584.76171875 724.98046875 C606.62720342 708.0553028 617.09944333 682.72219443 621 656 C623.00180016 638.35648057 623.29419002 620.69125281 623.2784729 602.95614624 C623.28348988 600.33507693 623.28928804 597.71401964 623.29602563 595.09295523 C623.30900275 589.44668109 623.31487455 583.80043657 623.31578636 578.1541481 C623.31717586 569.75864084 623.33003917 561.36317697 623.3450741 552.96768442 C623.37006253 538.83765658 623.38601273 524.70763248 623.39665604 510.57758713 C623.40721117 496.60455909 623.42187906 482.63154513 623.44193649 468.65852737 C623.44380979 467.35111051 623.44380979 467.35111051 623.44572094 466.01728119 C623.45208545 461.59008574 623.45852245 457.16289039 623.46498732 452.73569508 C623.51054514 421.44831578 623.54703749 390.1609319 623.578125 358.87353516 C623.60833076 328.49462209 623.64268859 298.11571831 623.68261719 267.73681641 C623.68446369 266.33006309 623.68446369 266.33006309 623.6863475 264.89489052 C623.69871527 255.47601858 623.71116692 246.05714675 623.72367998 236.638275 C623.7491644 217.45413261 623.77408935 198.26998951 623.79867554 179.08584595 C623.79980645 178.20395746 623.80093736 177.32206898 623.80210253 176.41345661 C623.83670863 149.4044957 623.86894543 122.3955327 623.89883423 95.38656616 C623.89968306 94.62035482 623.90053189 93.85414347 623.90140645 93.0647136 C623.93573711 62.04314397 623.96755259 31.02157165 624 0 C688.68 0 753.36 0 820 0 C820.06039235 77.3765308 820.06039235 77.3765308 820.07695007 101.33129883 C820.07783807 102.6127806 820.07783807 102.6127806 820.07874402 103.92015089 C820.09863582 132.70417127 820.11438088 161.48819236 820.12702942 190.2722168 C820.12744359 191.21232312 820.12785776 192.15242945 820.12828448 193.12102385 C820.13726517 213.55669249 820.14557544 233.99236136 820.15319599 254.42803055 C820.15693769 264.45104385 820.16082739 274.4740571 820.16479492 284.49707031 C820.1651872 285.49443063 820.16557948 286.49179094 820.16598364 287.5193743 C820.1787462 319.79192213 820.201264 352.06445412 820.22889166 384.33699237 C820.2572531 417.52729639 820.27567105 450.71759165 820.28174497 483.90790758 C820.28260932 488.60593296 820.28358622 493.3039583 820.28463173 498.00198364 C820.284834 498.92653693 820.28503627 499.85109021 820.28524467 500.80366027 C820.28877684 515.63005135 820.30265576 530.45641518 820.3204961 545.28279519 C820.33824857 560.22244101 820.3448814 575.16206007 820.34050413 590.10171604 C820.33823869 598.95550473 820.34415796 607.80919476 820.36239263 616.66296546 C820.37378459 622.6054901 820.37389311 628.54795143 820.36549544 634.49048074 C820.36103936 637.858432 820.3625897 641.2260522 820.37464955 644.59400547 C820.66138675 729.72934279 797.84365347 811.72749867 737.5 873.6875 C723.30034213 887.63760325 706.3366065 899.2993982 689 909 C688.30922363 909.39251953 687.61844727 909.78503906 686.90673828 910.18945312 C628.80092705 942.9770828 560.55613381 950.16471487 495.01855469 950.14526367 C492.94537294 950.14826823 490.87219174 950.15167364 488.79901123 950.15544128 C483.24447036 950.16415592 477.68994496 950.16661408 472.13539791 950.16725707 C468.64140354 950.16797501 465.14741292 950.17012319 461.65341949 950.17275429 C449.3962225 950.18196778 437.13903628 950.18609441 424.88183594 950.18530273 C413.5667298 950.18470372 402.2516716 950.19523126 390.93657756 950.2110464 C381.13178819 950.22424819 371.32701424 950.22948137 361.52221608 950.22884732 C355.70647183 950.22859592 349.89077026 950.23124368 344.0750351 950.24202538 C322.99402303 950.27832374 301.94123425 950.28835258 280.88769531 949.09887695 C280.17864847 949.05919245 279.46960162 949.01950795 278.73906851 948.97862089 C209.51244195 944.97084754 139.30592514 925.32440846 87 878 C85.90792926 877.02952332 84.81548211 876.05947004 83.72265625 875.08984375 C78.07815302 870.04303433 72.82487916 864.84573333 68 859 C67.26652344 858.154375 66.53304687 857.30875 65.77734375 856.4375 C24.27237448 808.0259986 6.74133298 745.44599097 1 683 C0.86586499 681.55033432 0.86586499 681.55033432 0.72902018 680.07138246 C-0.3035861 667.00874739 -0.13562036 653.93129375 -0.12025452 640.83631897 C-0.12013341 638.06800597 -0.12152524 635.29969418 -0.12284368 632.53138155 C-0.12490746 626.52929821 -0.12329076 620.52722484 -0.11920547 614.52514267 C-0.11314785 605.60039286 -0.11287176 596.67564928 -0.11374746 587.7508978 C-0.1150587 572.73498753 -0.11173008 557.71908167 -0.10573006 542.70317268 C-0.09980707 527.8418685 -0.09596291 512.98056615 -0.09487724 498.11926079 C-0.0948085 497.19421223 -0.09473976 496.26916368 -0.09466894 495.31608335 C-0.09433059 490.61796773 -0.09402922 485.91985211 -0.09374207 481.22173648 C-0.0916433 447.9704956 -0.08491054 414.71925711 -0.07543945 381.46801758 C-0.06625075 349.17081719 -0.05916923 316.87361745 -0.05493164 284.57641602 C-0.05473435 283.08233133 -0.05473435 283.08233133 -0.05453308 281.55806312 C-0.05321452 271.55498627 -0.05193871 261.55190942 -0.05069422 251.54883256 C-0.0481582 231.17256457 -0.04533695 210.79629662 -0.04234314 190.42002869 C-0.04220585 189.48322144 -0.04206856 188.54641418 -0.04192711 187.58121883 C-0.03770517 158.87495147 -0.03227459 130.16868451 -0.02565002 101.4624176 C-0.02546247 100.64763306 -0.02527491 99.83284852 -0.02508167 98.99337353 C-0.01746746 65.99558217 -0.00857281 32.99779112 0 0 Z " fill="#767677" transform="translate(6876,2536)"/>
<path d="M0 0 C66 0 132 0 200 0 C200.02187378 28.45404053 200.02187378 28.45404053 200.04418945 57.48291016 C200.05436594 70.15166247 200.06459273 82.82041459 200.07551575 95.48916626 C200.07620828 96.29407953 200.07690081 97.0989928 200.07761432 97.92829739 C200.1009916 125.03727539 200.1284568 152.14624764 200.15898132 179.25521851 C200.15997689 180.1403159 200.16097246 181.0254133 200.16199819 181.93733183 C200.18365942 201.17535302 200.20598231 220.4133734 200.22898628 239.65139303 C200.24026427 249.08644287 200.25139613 258.52149287 200.26245117 267.95654297 C200.26355374 268.89541717 200.2646563 269.83429136 200.26579228 270.80161629 C200.30142681 301.20397699 200.32742191 331.60633659 200.34838969 362.00871064 C200.36999753 393.26502731 200.40138716 424.52131938 200.44499113 455.77761346 C200.45115289 460.19775429 200.45720345 464.61789527 200.46318626 469.03803635 C200.46495759 470.34288859 200.46495759 470.34288859 200.46676469 471.67410149 C200.4854473 485.64700856 200.49389399 499.61990375 200.49846124 513.59282178 C200.50327914 527.65855032 200.51900365 541.7242338 200.54566566 555.78993817 C200.56115749 564.13480527 200.56848243 572.4795834 200.56376929 580.82446406 C200.56116454 587.07553012 200.57428627 593.32647448 200.59323552 599.57751028 C200.59847153 602.0920115 200.59877221 604.60652937 200.59339563 607.12103029 C200.52201834 644.31611716 206.00614293 681.59893279 232.5390625 709.66796875 C266.34076644 741.69910725 315.80810058 749.13151606 360.55903625 749.15821838 C362.19955332 749.16279414 363.84006924 749.16779561 365.48058385 749.17318195 C369.95483145 749.18665716 374.42907154 749.19415031 378.90333402 749.20060861 C383.74092376 749.20865968 388.57849809 749.22234103 393.41607666 749.23532104 C401.78633958 749.25701744 410.15660411 749.27518671 418.52688026 749.29092598 C430.62873336 749.31368717 442.73056934 749.34182115 454.83240785 749.37124526 C474.46923763 749.4188448 494.10607443 749.46212955 513.74291992 749.50268555 C532.81258694 749.54207943 551.8822477 749.58352601 570.9519043 749.62768555 C572.14033403 749.63043505 573.32876375 749.63318456 574.5532065 749.63601738 C583.84820371 749.65753791 593.14320065 749.67917707 602.43819749 749.70085371 C647.95878567 749.80698081 693.47939028 749.90276468 739 750 C739 816 739 882 739 950 C640.67217098 950.04033135 640.67217098 950.04033135 599.50390625 950.04882812 C590.08219399 950.05078575 580.66048175 950.05280616 571.23876953 950.05493164 C570.05804875 950.05519539 568.87732796 950.05545914 567.66082776 950.05573088 C548.64422726 950.06007019 529.62762982 950.06794846 510.61103113 950.0771528 C491.06847131 950.08653223 471.52591309 950.09206467 451.98335111 950.09408849 C439.9422415 950.09545484 427.90114051 950.099757 415.86003356 950.10791647 C407.58262093 950.11323692 399.3052127 950.11479235 391.02779849 950.11350138 C386.26519493 950.11286621 381.50260634 950.11378097 376.74000549 950.11920547 C351.52912925 950.14648148 326.31650691 950.13094507 301.1875 947.8125 C300.52009796 947.75097748 299.85269592 947.68945496 299.16506958 947.62606812 C247.58879727 942.77381438 197.00316955 930.28690171 151 906 C149.93168945 905.4419165 149.93168945 905.4419165 148.84179688 904.87255859 C137.23561179 898.77245738 126.49486006 891.85306827 116 884 C115.37609375 883.5344873 114.7521875 883.06897461 114.109375 882.58935547 C105.23824757 875.91942392 96.98774966 868.69998924 89 861 C88.165896 860.19876709 88.165896 860.19876709 87.31494141 859.38134766 C79.99939138 852.31769605 73.21866634 845.06631764 67 837 C66.32203369 836.13665039 66.32203369 836.13665039 65.63037109 835.25585938 C23.36562788 781.3489081 4.56330761 713.43831363 0.90481567 645.84579468 C0.8622099 645.05932975 0.81960412 644.27286481 0.77570726 643.46256761 C-0.51270709 618.67125808 -0.27173081 593.83742634 -0.23522273 569.02070938 C-0.22451604 561.4498674 -0.22590845 553.87903761 -0.22749493 546.30818992 C-0.23009958 532.34545236 -0.22352917 518.38273398 -0.21146011 504.42000198 C-0.19956646 490.62436451 -0.19191629 476.82873506 -0.18975449 463.0330925 C-0.18961701 462.17062421 -0.18947953 461.30815593 -0.18933788 460.41955224 C-0.18866108 456.03830465 -0.18805836 451.65705706 -0.18748413 447.27580945 C-0.18329959 416.36111365 -0.16987074 385.44642824 -0.15087891 354.53173828 C-0.13246687 324.52587946 -0.11832089 294.5200235 -0.10986328 264.51416016 C-0.10960023 263.58686726 -0.10933718 262.65957437 -0.10906615 261.70418169 C-0.10642878 252.39068571 -0.1038772 243.0771897 -0.10138843 233.76369368 C-0.096318 214.79635024 -0.0906755 195.82900699 -0.08468628 176.86166382 C-0.0844117 175.98985575 -0.08413712 175.11804768 -0.08385422 174.21982118 C-0.07541947 147.53453653 -0.06456348 120.84925364 -0.05130005 94.16397095 C-0.05092493 93.40735399 -0.05054982 92.65073703 -0.05016333 91.87119229 C-0.03494382 61.24746072 -0.01714847 30.62373054 0 0 Z " fill="#767677" transform="translate(5956,2536)"/>
<path d="M0 0 C0.95482269 -0.00701431 1.90964539 -0.01402863 2.8934021 -0.02125549 C5.96023333 -0.0386614 9.02687117 -0.04510854 12.09375 -0.046875 C13.66893402 -0.04788712 13.66893402 -0.04788712 15.27593994 -0.04891968 C31.57041405 -0.03229805 47.49060023 0.49059772 63.59375 3.203125 C64.62967285 3.37473145 65.6655957 3.54633789 66.73291016 3.72314453 C110.62137528 11.23364957 151.96616515 28.42293633 187.59375 55.203125 C188.16013184 55.62529297 188.72651367 56.04746094 189.31005859 56.48242188 C199.01408556 63.75565707 207.88129026 71.77820519 216.59375 80.203125 C217.42616211 81.00266602 217.42616211 81.00266602 218.27539062 81.81835938 C225.25225678 88.54213486 231.6080118 95.57182304 237.59375 103.203125 C238.47532781 104.29526863 239.35819681 105.38637096 240.2421875 106.4765625 C286.70537278 164.12532942 307.85837733 239.3491679 300.76879883 312.82739258 C298.46994221 333.04339838 294.10147435 352.92983118 287.59375 372.203125 C287.2848584 373.1199707 286.9759668 374.03681641 286.65771484 374.98144531 C278.58285583 398.52481817 267.57687766 420.61549276 253.59375 441.203125 C252.9426123 442.16847168 252.9426123 442.16847168 252.27832031 443.15332031 C246.68009917 451.39359202 240.5644642 459.08970134 234.00537109 466.58666992 C233.00714526 467.72974382 232.01594679 468.87897256 231.02978516 470.0324707 C220.36391622 482.42564953 208.62979405 494.30758247 195.59375 504.203125 C194.61921875 504.98300781 193.6446875 505.76289063 192.640625 506.56640625 C154.53101677 536.9291433 107.64847826 556.12832516 59.59375 563.203125 C58.44479248 563.38190186 57.29583496 563.56067871 56.11206055 563.74487305 C43.68011254 565.53184472 31.24334912 565.54137443 18.70385742 565.51879883 C15.06202868 565.5156516 11.42102515 565.53913433 7.77929688 565.56445312 C-69.33316388 565.77366438 -138.89000351 533.65906148 -193.40625 480.203125 C-196.55376575 476.98160809 -199.51023171 473.65170555 -202.40625 470.203125 C-202.88239746 469.63932129 -203.35854492 469.07551758 -203.84912109 468.49462891 C-240.87207105 424.46577992 -264.53719441 371.43733209 -271.40625 314.203125 C-271.50196289 313.43226563 -271.59767578 312.66140625 -271.69628906 311.8671875 C-272.71271343 302.46799445 -272.64995664 293.02105213 -272.65625 283.578125 C-272.65692474 282.66717072 -272.65759949 281.75621643 -272.65829468 280.81765747 C-272.6410121 266.09209123 -271.96664755 251.7338851 -269.40625 237.203125 C-269.15681641 235.7476123 -269.15681641 235.7476123 -268.90234375 234.26269531 C-260.52319667 186.76534491 -240.00442534 141.51681951 -209.40625 104.203125 C-208.94492676 103.64028809 -208.48360352 103.07745117 -208.00830078 102.49755859 C-195.88809905 87.83038706 -182.56817778 73.74968997 -167.40625 62.203125 C-166.40722656 61.41035156 -165.40820312 60.61757812 -164.37890625 59.80078125 C-118.48775144 23.51949296 -58.75860987 0.29165823 0 0 Z " fill="#4AB8E9" transform="translate(1346.40625,1772.796875)"/>
<path d="M0 0 C70.20103488 -1.24573861 140.7302947 24.55141213 191.55126953 73.36376953 C211.41616988 92.58769433 211.41616988 92.58769433 219.3671875 103.12109375 C219.86750488 103.76675293 220.36782227 104.41241211 220.88330078 105.07763672 C265.88742996 163.22491293 286.47354764 237.11990135 277.3671875 310.12109375 C268.28124047 378.5914638 231.57160979 447.48708079 178.3671875 492.12109375 C177.87814941 492.53456055 177.38911133 492.94802734 176.88525391 493.37402344 C160.74856452 506.93369566 143.09775869 518.47338594 124.3671875 528.12109375 C123.63387207 528.50072266 122.90055664 528.88035156 122.14501953 529.27148438 C56.19419494 562.98638447 -21.03371495 565.93053163 -90.95214844 543.55834961 C-112.58745037 536.33089363 -133.70620089 525.8293773 -152.6328125 513.12109375 C-153.56818848 512.49557617 -153.56818848 512.49557617 -154.52246094 511.85742188 C-162.79579999 506.26626707 -170.50295834 500.10618298 -178.01635742 493.53271484 C-179.15943132 492.53448901 -180.30866006 491.54329054 -181.4621582 490.55712891 C-193.83126502 479.91197692 -205.83620082 468.20052063 -215.6328125 455.12109375 C-216.69392386 453.74993301 -217.75513049 452.378846 -218.81640625 451.0078125 C-263.69857208 392.30950631 -282.5811942 318.2381394 -273.25830078 245.18652344 C-266.49569962 197.26632173 -246.15388589 152.02431519 -217.6328125 113.12109375 C-217.2104834 112.54327148 -216.7881543 111.96544922 -216.35302734 111.37011719 C-211.24963918 104.44142961 -205.80243019 97.92233978 -199.94140625 91.61328125 C-197.91340629 89.42400211 -195.95070067 87.1980938 -194.0078125 84.93359375 C-188.06376917 78.11256042 -181.56775457 71.92265532 -174.6328125 66.12109375 C-174.14522461 65.70907715 -173.65763672 65.29706055 -173.15527344 64.87255859 C-157.01724855 51.31098927 -139.36542035 39.7698506 -120.6328125 30.12109375 C-119.89949707 29.74146484 -119.16618164 29.36183594 -118.41064453 28.97070312 C-81.64413315 10.17519502 -41.09066238 1.36968875 0 0 Z " fill="#4AB8E9" transform="translate(2894.6328125,3829.87890625)"/>
<path d="M0 0 C3.5506385 2.79529283 6.81530035 5.6785816 10.01171875 8.875 C10.34171875 2.935 10.67171875 -3.005 11.01171875 -9.125 C38.73171875 -9.125 66.45171875 -9.125 95.01171875 -9.125 C95.07798748 25.67831741 95.13332881 60.48157306 95.16491474 95.28493468 C95.16866638 99.40374237 95.17254939 103.52254993 95.17651367 107.64135742 C95.1773006 108.46125858 95.17808753 109.28115974 95.17889831 110.12590639 C95.19191433 123.36165318 95.21554695 136.59736046 95.24317714 149.83308389 C95.27133767 163.43740212 95.28791739 177.04169981 95.29398423 190.64604598 C95.29807872 199.02511134 95.31095981 207.40406496 95.33546815 215.78309587 C95.35145718 221.54685385 95.35608972 227.31055497 95.35222288 233.07433345 C95.35032152 236.3883653 95.35470913 239.70204892 95.36933517 243.01607132 C95.52552277 280.26355633 89.82454284 315.21176917 63.01171875 342.875 C62.2228125 343.77412109 62.2228125 343.77412109 61.41796875 344.69140625 C41.39530366 366.7061222 7.95756104 374.3075893 -20.5 375.75 C-22.22669922 375.811875 -22.22669922 375.811875 -23.98828125 375.875 C-25.51388672 375.936875 -25.51388672 375.936875 -27.0703125 376 C-60.47525702 376.68610926 -93.7602225 367.98329685 -118.9375 345.20703125 C-130.63663049 333.89095551 -130.63663049 333.89095551 -133.98828125 326.875 C-133.99456433 323.70832792 -132.89072591 322.77280705 -130.6875 320.46484375 C-129.69109854 319.57227976 -128.68662735 318.68867151 -127.67578125 317.8125 C-126.57402761 316.83094367 -125.47247043 315.84916679 -124.37109375 314.8671875 C-123.80680664 314.36928711 -123.24251953 313.87138672 -122.66113281 313.35839844 C-120.09497388 311.08286113 -117.57486804 308.75965984 -115.05078125 306.4375 C-114.05217135 305.52203939 -113.05347244 304.60667587 -112.0546875 303.69140625 C-108.85968181 300.75931327 -105.67360826 297.81759931 -102.48828125 294.875 C-100.86469861 293.37617713 -99.24098554 291.87749576 -97.6171875 290.37890625 C-96.52043484 289.36631686 -95.42408829 288.35328745 -94.328125 287.33984375 C-92.71631084 285.84996352 -91.10250816 284.36226524 -89.48828125 282.875 C-88.54984375 282.00875 -87.61140625 281.1425 -86.64453125 280.25 C-84.15877544 278.02744186 -81.61363528 275.92962489 -78.98828125 273.875 C-75.73288047 275.28139025 -73.84234638 276.93482643 -71.48828125 279.5625 C-61.0790631 290.16412514 -46.90906366 295.18447817 -32.25390625 295.91015625 C-20.2079121 295.78047449 -10.7810752 292.63669106 -0.98828125 285.875 C0.00171875 285.545 0.99171875 285.215 2.01171875 284.875 C3.11168767 283.08312991 3.11168767 283.08312991 4.01171875 280.875 C4.63240234 279.6684375 4.63240234 279.6684375 5.265625 278.4375 C5.69746094 277.591875 6.12929688 276.74625 6.57421875 275.875 C7.00863281 275.029375 7.44304687 274.18375 7.890625 273.3125 C10.02600545 268.66972161 10.28251619 264.18436566 10.57421875 259.125 C10.63899414 258.07892578 10.63899414 258.07892578 10.70507812 257.01171875 C10.81061471 255.29968078 10.91161785 253.58736439 11.01171875 251.875 C10.47546875 252.3596875 9.93921875 252.844375 9.38671875 253.34375 C-9.76429199 269.72290392 -31.43131417 273.40721523 -55.98828125 271.875 C-79.31882607 269.81806872 -98.93388313 257.95667886 -114.05078125 240.37109375 C-126.76585689 223.99017976 -133.62293688 204.12211111 -136.73828125 183.8125 C-136.85389404 183.05888184 -136.96950684 182.30526367 -137.08862305 181.52880859 C-139.27302671 165.80840017 -139.17463813 149.95184366 -139.17358398 134.11547852 C-139.17575828 130.47595295 -139.19394145 126.83673741 -139.21289062 123.19726562 C-139.24160006 111.54577262 -139.02392182 99.9673273 -138.1171875 88.34765625 C-138.04155075 87.36712784 -137.965914 86.38659943 -137.88798523 85.37635803 C-136.48336835 69.288792 -132.93428536 53.48781997 -125.98828125 38.875 C-125.69050781 38.24658203 -125.39273438 37.61816406 -125.0859375 36.97070312 C-120.76124334 27.98933621 -115.73536372 20.28452329 -108.98828125 12.875 C-108.40304687 12.22015625 -107.8178125 11.5653125 -107.21484375 10.890625 C-80.83497354 -17.09928424 -31.26819904 -22.23516376 0 0 Z " fill="#767677" transform="translate(6577.98828125,3985.125)"/>
<path d="M0 0 C27.39 0 54.78 0 83 0 C83 41.25 83 82.5 83 125 C86.63 122.03 90.26 119.06 94 116 C113.4919317 101.72421903 137.15718487 99.24906045 160.63842773 102.77392578 C182.00052596 106.67174297 200.8455339 117.51053939 214 135 C232.6629577 162.59964321 236.18922344 193.07967528 236.11352539 225.65380859 C236.11324262 227.37998961 236.113403 229.10617074 236.1139679 230.83235168 C236.11425238 235.47394737 236.10841252 240.1155167 236.10139394 244.7571063 C236.09510186 249.62441591 236.094552 254.49172626 236.09336853 259.35903931 C236.09027237 268.55610554 236.08208229 277.75315974 236.07201904 286.9502207 C236.0587035 299.3922641 236.05334413 311.83431083 236.04751682 324.27635956 C236.03814109 343.85091536 236.01821077 363.4254458 236 383 C208.28 383 180.56 383 152 383 C151.96132813 364.36789062 151.96132813 364.36789062 151.921875 345.359375 C151.89670497 337.48435929 151.87053334 329.60936794 151.83984375 321.734375 C151.79133127 309.23828304 151.74687674 296.74227213 151.72900391 284.24609375 C151.71596701 275.14424179 151.68895039 266.04255504 151.64538693 256.94079614 C151.62281794 252.12476589 151.60708658 247.30893907 151.60811615 242.49285126 C151.60886546 237.95209357 151.59080637 233.41178479 151.55883217 228.87114334 C151.55037129 227.21204554 151.5485571 225.55289717 151.55419731 223.89378738 C151.58638453 212.96266937 150.70721987 203.25593353 145 193.625 C135.47065853 185.28682622 125.16547968 183.59800513 112.89453125 183.73046875 C103.90040832 184.35293062 96.71415063 186.92898183 90.62109375 193.71875 C85.14528959 201.42445995 83.88940634 209.94693869 83.84178162 219.21334839 C83.83684364 219.91676239 83.83190566 220.62017639 83.82681805 221.34490597 C83.81152491 223.68940772 83.80310477 226.03388226 83.79467773 228.37841797 C83.78509277 230.06401303 83.77508232 231.74960572 83.76467896 233.43519592 C83.73769088 238.00286155 83.71664837 242.57053745 83.69667697 247.13823843 C83.67477973 251.91486059 83.64740935 256.69145132 83.62062073 261.4680481 C83.57074434 270.50952752 83.52578678 279.55102443 83.48259836 288.592538 C83.42394091 300.81294644 83.35768123 313.0333135 83.29184818 325.253685 C83.18835256 344.50242877 83.09501084 363.75120814 83 383 C55.61 383 28.22 383 0 383 C0 256.61 0 130.22 0 0 Z " fill="#767677" transform="translate(4939,3870)"/>
<path d="M0 0 C1.06288742 -0.00101212 1.06288742 -0.00101212 2.14724731 -0.00204468 C37.55698496 0.05135013 68.08059596 9.74207669 93.55078125 35.10546875 C116.64525651 60.00502944 121.82395035 94.14535929 121.85546875 126.78515625 C121.85879715 128.02510849 121.86212555 129.26506073 121.86555481 130.54258728 C121.87057987 133.1484236 121.87296452 135.75426626 121.87280273 138.36010742 C121.87498115 142.27859497 121.89316308 146.1967967 121.91210938 150.11523438 C122.00326662 190.25126017 117.00230298 226.32411306 87.99609375 256.00390625 C73.64172312 269.68965991 55.75221053 277.62391113 36.6875 282.25 C35.665354 282.49991699 35.665354 282.49991699 34.62255859 282.75488281 C12.86706021 287.7646114 -13.64267021 287.50078633 -35.3125 282.25 C-36.02035645 282.08371094 -36.72821289 281.91742188 -37.45751953 281.74609375 C-64.10075951 275.27550702 -88.34897633 259.93406729 -102.875 236.25 C-116.34335057 213.33799273 -120.44872312 188.54213328 -120.515625 162.26171875 C-120.51845238 161.50275614 -120.52127975 160.74379353 -120.52419281 159.96183205 C-120.53910773 155.93703502 -120.54838304 151.91227305 -120.55273438 147.88745117 C-120.55710014 144.60706341 -120.57092845 141.32694146 -120.59375 138.04663086 C-120.83768194 102.25216509 -119.28523424 63.99784917 -93.3125 36.25 C-92.43078125 35.27804688 -91.5490625 34.30609375 -90.640625 33.3046875 C-67.09662071 8.09142996 -33.38299529 0.02862079 0 0 Z " fill="#767677" transform="translate(6234.3125,3971.75)"/>
<path d="M0 0 C23.21271654 20.32937596 32.55712475 50.55633393 34.78659058 80.4004364 C35.13263838 86.23720331 35.16256787 92.06451792 35.16796875 97.91015625 C35.17129715 99.1982872 35.17462555 100.48641815 35.17805481 101.81358337 C35.1839879 104.52376137 35.18590092 107.23390778 35.18530273 109.9440918 C35.18522176 112.67723244 35.19212863 115.41020446 35.20581055 118.14331055 C35.40973322 159.5439712 31.37393966 196.99038104 1.30859375 227.75390625 C-13.04577688 241.43965991 -30.93528947 249.37391113 -50 254 C-51.022146 254.24991699 -51.022146 254.24991699 -52.06494141 254.50488281 C-73.82043979 259.5146114 -100.33017021 259.25078633 -122 254 C-122.70785645 253.83371094 -123.41571289 253.66742188 -124.14501953 253.49609375 C-152.20688495 246.68097914 -175.65937116 230.42882396 -190.86328125 205.69921875 C-206.60545533 179.09557118 -207.52504437 148.65543097 -207.39111328 118.64160156 C-207.37402217 114.77595936 -207.38418798 110.91093682 -207.40143108 107.04531574 C-207.53686587 71.29543191 -204.79445639 34.43906938 -179 7 C-178.16984375 6.07960938 -177.3396875 5.15921875 -176.484375 4.2109375 C-169.71894332 -2.96991542 -162.50227528 -8.08928608 -154 -13 C-153.05769531 -13.55429688 -152.11539063 -14.10859375 -151.14453125 -14.6796875 C-106.12636162 -39.18887435 -38.7581555 -33.30448062 0 0 Z " fill="#767677" transform="translate(5803,4000)"/>
<path d="M0 0 C0.7321875 0.19867676 1.464375 0.39735352 2.21875 0.60205078 C17.90275314 5.02311163 30.80696893 12.03954594 43 23 C44.13501953 23.99386719 44.13501953 23.99386719 45.29296875 25.0078125 C68.91553597 46.99979543 79.21083161 80.8677849 83.75 111.8125 C83.86561279 112.59842529 83.98122559 113.38435059 84.1003418 114.1940918 C86.81983908 134.39105681 86 154.65152225 86 175 C33.53 175.33 -18.94 175.66 -73 176 C-68.86827705 188.39516884 -63.31685439 195.62508365 -52 202 C-36.16085383 208.659641 -15.86472273 208.206419 0 202 C9.68364643 197.94289414 18.16453171 193.08205787 26 186 C32.45604783 190.55721023 38.13527589 195.72554149 43.89453125 201.109375 C46.88983203 203.90919299 49.95228942 206.62025739 53.0546875 209.30078125 C55.3366529 211.29406428 57.57228574 213.33493027 59.8125 215.375 C63.37312094 218.59546917 67.01454391 221.67176544 70.75 224.6875 C74.76029043 227.92986248 78.45216591 231.26039109 82 235 C80.43977949 239.10634723 77.48493311 241.46869029 74.1875 244.1875 C73.60782471 244.66944824 73.02814941 245.15139648 72.4309082 245.64794922 C43.81982562 269.11081619 9.83422725 282.21357096 -27.25 282.25 C-27.9604245 282.25100708 -28.670849 282.25201416 -29.40280151 282.25305176 C-41.15242761 282.24181142 -52.49541431 281.49736971 -64 279 C-64.66692871 278.86078125 -65.33385742 278.7215625 -66.02099609 278.578125 C-93.74241109 272.60969675 -119.180742 256.25385468 -134.87109375 232.5078125 C-149.06063201 209.5887507 -154.0997087 184.33657867 -154.203125 157.6171875 C-154.20882507 156.44527863 -154.21452515 155.27336975 -154.22039795 154.06594849 C-154.22980371 151.59003589 -154.23636423 149.11411103 -154.24023438 146.63818359 C-154.24984603 142.9343335 -154.28087386 139.2310618 -154.3125 135.52734375 C-154.49379713 94.90931835 -147.52329864 57.79956907 -118.8125 27.4375 C-89.12738599 -1.2734911 -39.26684563 -10.71176451 0 0 Z " fill="#777778" transform="translate(4463,3975)"/>
<path d="M0 0 C3.0363463 2.65697996 5.88628419 5.46286877 8.72265625 8.33203125 C9.90601562 9.49992187 9.90601562 9.49992187 11.11328125 10.69140625 C47.6965128 48.80959856 47.72265625 107.62997802 47.72265625 156.33203125 C-4.74734375 156.66203125 -57.21734375 156.99203125 -111.27734375 157.33203125 C-107.83472736 167.65988041 -103.47457489 175.21542607 -94.27734375 181.33203125 C-78.14401935 188.89086484 -58.89722055 190.11966489 -41.83203125 184.72265625 C-30.83228153 180.41945746 -21.10591617 175.31170248 -12.27734375 167.33203125 C-7.48085933 170.32801164 -3.48805358 173.74749631 0.59765625 177.64453125 C1.83906114 178.81333178 3.08124244 179.98130825 4.32421875 181.1484375 C4.91364258 181.70289551 5.50306641 182.25735352 6.11035156 182.82861328 C8.62358768 185.17211843 11.21008466 187.42469778 13.8125 189.66796875 C16.08470136 191.64743251 18.30725497 193.67786295 20.53515625 195.70703125 C24.07425627 198.90855558 27.69368731 201.96349188 31.41015625 204.95703125 C35.7994705 208.50464461 39.85371659 212.22540929 43.72265625 216.33203125 C42.13582912 220.59726085 38.91734072 223.10645763 35.53515625 225.95703125 C34.91439209 226.48264648 34.29362793 227.00826172 33.65405273 227.54980469 C5.75316524 250.73815357 -28.68200197 263.54993217 -64.96484375 263.58203125 C-65.65064514 263.58270599 -66.33644653 263.58338074 -67.04302979 263.58407593 C-101.95282333 263.52974359 -134.73098814 254.10583095 -160.46484375 229.58203125 C-184.62208871 204.36937267 -192.40607151 171.02016777 -192.4453125 136.9609375 C-192.4486409 135.91791977 -192.4519693 134.87490204 -192.45539856 133.80027771 C-192.46042403 131.60619542 -192.46280825 129.41210561 -192.46264648 127.21801758 C-192.46481791 123.93362158 -192.48297992 120.64957056 -192.50195312 117.36523438 C-192.54843411 100.39336587 -192.33204142 83.04587258 -188.02734375 66.51953125 C-187.81045898 65.65755127 -187.59357422 64.79557129 -187.37011719 63.9074707 C-182.12111308 43.73837774 -173.43405829 26.68478158 -159.27734375 11.33203125 C-158.69597656 10.66945313 -158.11460938 10.006875 -157.515625 9.32421875 C-120.79139479 -30.45265528 -40.96340802 -34.28660744 0 0 Z " fill="#777778" transform="translate(7126.27734375,3993.66796875)"/>
<path d="M0 0 C-3.20963864 5.04824645 -6.85650321 9.59854256 -10.6875 14.1875 C-11.95195457 15.71213041 -13.21627774 17.2368698 -14.48046875 18.76171875 C-15.08938965 19.49438965 -15.69831055 20.22706055 -16.32568359 20.98193359 C-18.39637278 23.47775116 -20.45021942 25.98699217 -22.5 28.5 C-25.1184435 31.70575793 -27.7445995 34.90493172 -30.37890625 38.09765625 C-36.64183222 45.68829576 -42.89393142 53.28208102 -49 61 C-53.54317678 60.39539472 -57.13942452 58.502094 -61.125 56.375 C-87.40486316 42.871513 -118.6194961 35.3090201 -148 42 C-152.43844748 43.47738691 -157.19478905 45.06173967 -160 49 C-160.109988 51.59620008 -160.109988 51.59620008 -159 54 C-153.53089895 57.74691604 -145.99636971 58.44989916 -139.546875 59.43359375 C-138.72746429 59.56069229 -137.90805359 59.68779083 -137.06381226 59.81874084 C-125.61668089 61.55846944 -114.11543698 62.9141484 -102.62109375 64.29956055 C-91.91426772 65.59516327 -81.2575232 67.00796656 -70.65234375 68.984375 C-69.82622589 69.13547226 -69.00010803 69.28656952 -68.1489563 69.44224548 C-47.48787885 73.45678375 -27.57490086 82.77510643 -15.1875 100.3125 C-5.9070341 114.10611031 -2.71373887 129.56170164 -2 146 C-1.95875 146.93972656 -1.9175 147.87945312 -1.875 148.84765625 C-1.35986667 172.7691603 -7.94606198 194.88703987 -24 213 C-24.52980469 213.61230469 -25.05960938 214.22460938 -25.60546875 214.85546875 C-42.81858904 233.42863805 -69.63347623 241.71014932 -94 245 C-94.69109863 245.09571289 -95.38219727 245.19142578 -96.09423828 245.29003906 C-104.73262592 246.32198518 -113.4377775 246.2437489 -122.125 246.25 C-122.96870148 246.25067474 -123.81240295 246.25134949 -124.68167114 246.25204468 C-138.64532537 246.23436017 -152.23549937 245.51400805 -166 243 C-166.95326172 242.82839355 -167.90652344 242.65678711 -168.88867188 242.47998047 C-196.36335866 237.37297473 -224.48964347 228.02463939 -247 211 C-247.81855469 210.39929687 -248.63710938 209.79859375 -249.48046875 209.1796875 C-251.33665807 207.80591571 -253.17612021 206.41618901 -255 205 C-252.47344082 200.42938425 -249.31622 196.56750315 -246 192.5625 C-244.82197748 191.12707234 -243.64490955 189.69086079 -242.46875 188.25390625 C-241.88222656 187.53734863 -241.29570312 186.82079102 -240.69140625 186.08251953 C-238.25632255 183.08435787 -235.87462692 180.04611865 -233.5 177 C-229.02779377 171.27141812 -224.45965406 165.62633834 -219.86450195 159.99609375 C-214.48943385 153.39850228 -209.23244842 146.71095588 -204 140 C-203.10474609 140.49306641 -203.10474609 140.49306641 -202.19140625 140.99609375 C-200.29848126 142.03396793 -198.40223447 143.06579193 -196.50390625 144.09375 C-194.04315886 145.43248436 -191.59539477 146.78624674 -189.15234375 148.15625 C-160.87082729 163.81933866 -128.15621872 171.71640974 -96 165 C-90.30606436 163.36220945 -84.88094704 161.42004074 -80 158 C-78.87479317 154.20242693 -78.518438 152.04686024 -80.19088745 148.41114807 C-84.29110873 142.94645731 -92.30394279 141.9721405 -98.74560547 140.98266602 C-100.78456165 140.72689341 -102.82523092 140.48450387 -104.8671875 140.25390625 C-105.97259384 140.1177742 -107.07800018 139.98164215 -108.21690369 139.84138489 C-110.562145 139.55320582 -112.90805063 139.27038838 -115.25454712 138.99261475 C-121.34153057 138.2694728 -127.42250024 137.49889215 -133.50390625 136.73046875 C-134.68899277 136.58144104 -135.87407928 136.43241333 -137.09507751 136.27886963 C-199.53894419 128.36537996 -199.53894419 128.36537996 -219 108 C-219.63164062 107.38769531 -220.26328125 106.77539062 -220.9140625 106.14453125 C-235.09111157 91.49907748 -237.34059636 71.62812374 -237.4375 52.25 C-237.44773193 50.959729 -237.45796387 49.66945801 -237.46850586 48.34008789 C-237.26539369 26.09007345 -230.02729239 6.45233945 -214.75 -9.75 C-158.70604851 -62.6052439 -55.91410562 -41.2699351 0 0 Z " fill="#777778" transform="translate(7493,4011)"/>
<path d="M0 0 C23.66058358 18.96864457 33.83067544 46.61347501 37.27672958 75.97605896 C38.08437593 83.71003312 37.96851052 91.46396676 37.93408203 99.23046875 C37.93351633 101.04561354 37.93383758 102.86075879 37.93496704 104.67590332 C37.93553534 109.55087465 37.92386676 114.42574535 37.90981913 119.30069351 C37.89722357 124.41489385 37.89613437 129.52909709 37.89376831 134.64331055 C37.88757927 144.30427556 37.8712037 153.96519472 37.85106933 163.62613964 C37.82442483 176.69759728 37.81371685 189.76906766 37.8020649 202.84054565 C37.78332095 223.40154388 37.7434582 243.96244538 37.70703125 264.5234375 C10.31703125 264.5234375 -17.07296875 264.5234375 -45.29296875 264.5234375 C-45.34195313 252.53515625 -45.3909375 240.546875 -45.44140625 228.1953125 C-45.47679786 220.59374285 -45.51268113 212.99218076 -45.55078125 205.390625 C-45.61114405 193.32911921 -45.66951816 181.26762761 -45.71484375 169.20605469 C-45.74786716 160.42067154 -45.78775501 151.63535043 -45.83575881 142.85003591 C-45.86092124 138.2017313 -45.88273237 133.55346729 -45.89631271 128.90511322 C-45.9092267 124.52206032 -45.9313799 120.13914742 -45.96035194 115.75617218 C-45.96935526 114.15512108 -45.97510082 112.55404748 -45.97718239 110.95297241 C-45.72844304 91.58575119 -45.72844304 91.58575119 -53.875 74.62109375 C-61.27875542 67.24851203 -70.81811415 65.33229761 -80.98046875 65.0859375 C-91.82487931 65.44295513 -98.71646834 67.64809601 -106.29296875 75.5234375 C-107.43765625 76.6990625 -107.43765625 76.6990625 -108.60546875 77.8984375 C-114.3233438 86.7929098 -113.7360844 96.46656122 -113.7253418 106.60961914 C-113.73436879 108.33506976 -113.7446983 110.06051398 -113.75622559 111.78594971 C-113.78371164 116.44850833 -113.79306867 121.11094499 -113.79907966 125.77357411 C-113.80848523 130.65430958 -113.83469036 135.53495474 -113.85908508 140.41563416 C-113.90269378 149.64825912 -113.93127531 158.8808665 -113.95440847 168.113563 C-113.98655834 180.59650776 -114.04202189 193.07934777 -114.09615421 205.56221294 C-114.18077064 225.21592325 -114.2343247 244.86959279 -114.29296875 264.5234375 C-142.01296875 264.5234375 -169.73296875 264.5234375 -198.29296875 264.5234375 C-198.29296875 173.1134375 -198.29296875 81.7034375 -198.29296875 -12.4765625 C-170.57296875 -12.4765625 -142.85296875 -12.4765625 -114.29296875 -12.4765625 C-114.29296875 -6.2065625 -114.29296875 0.0634375 -114.29296875 6.5234375 C-113.13796875 5.4921875 -111.98296875 4.4609375 -110.79296875 3.3984375 C-80.79333547 -22.66767743 -32.07562985 -24.71080454 0 0 Z " fill="#767677" transform="translate(5469.29296875,3988.4765625)"/>
<path d="M0 0 C93.72 0 187.44 0 284 0 C284 26.73 284 53.46 284 81 C234.995 81.495 234.995 81.495 185 82 C184.67 181.33 184.34 280.66 184 383 C156.28 383 128.56 383 100 383 C100 283.34 100 183.68 100 81 C67 81 34 81 0 81 C0 54.27 0 27.54 0 0 Z " fill="#777778" transform="translate(4007,3870)"/>
<path d="M0 0 C6.95902499 5.97153282 13.39033472 12.46294031 16.6875 21.125 C15.61000488 22.09421387 15.61000488 22.09421387 14.51074219 23.08300781 C6.74120767 30.11424737 -0.70142344 37.41975189 -8.0625 44.875 C-20.37309263 57.34100138 -20.37309263 57.34100138 -26.67675781 62.71630859 C-28.82516609 64.56650497 -30.82610288 66.5406315 -32.8125 68.5625 C-33.4828125 69.24183594 -34.153125 69.92117187 -34.84375 70.62109375 C-35.57078125 71.36552734 -35.57078125 71.36552734 -36.3125 72.125 C-40.14394374 70.81912731 -42.37218714 69.31499849 -45.1875 66.4375 C-57.89701439 54.84507394 -75.44292727 51.30178598 -92.19140625 51.83984375 C-106.14332587 52.61441025 -116.42835904 57.27598186 -126.07421875 67.296875 C-131.69099368 74.39381226 -134.40088407 83.11592925 -134.47363281 92.10791016 C-134.48324036 93.07306549 -134.4928479 94.03822083 -134.50274658 95.03262329 C-134.50699646 96.06599823 -134.51124634 97.09937317 -134.515625 98.1640625 C-134.52132507 99.2407016 -134.52702515 100.3173407 -134.53289795 101.42660522 C-134.54233372 103.70447817 -134.54887627 105.98236468 -134.55273438 108.26025391 C-134.56240687 111.7167192 -134.59343088 115.17258121 -134.625 118.62890625 C-134.63153409 120.84895483 -134.63678297 123.06900763 -134.640625 125.2890625 C-134.6591452 126.82090683 -134.6591452 126.82090683 -134.67803955 128.38369751 C-134.6399612 140.86969074 -131.17268641 152.82814761 -122.625 162.16796875 C-110.0388824 172.81939598 -94.09730009 174.39492939 -78.3125 173.125 C-64.1724273 171.2030168 -51.121949 164.45073579 -41.3125 154.125 C-40.6525 153.135 -39.9925 152.145 -39.3125 151.125 C-35.67727456 151.70185168 -34.00728483 153.06512298 -31.44921875 155.66015625 C-30.72669922 156.38783203 -30.00417969 157.11550781 -29.25976562 157.86523438 C-28.51404297 158.63158203 -27.76832031 159.39792969 -27 160.1875 C-26.26587891 160.92677734 -25.53175781 161.66605469 -24.77539062 162.42773438 C-21.46084921 165.78933228 -18.22856599 169.17924801 -15.171875 172.77734375 C-9.45051917 179.40721639 -3.08381487 185.45745782 3.125 191.625 C4.44229059 192.93726585 5.75934986 194.24976395 7.07617188 195.5625 C10.2772861 198.75268506 13.48151865 201.93970651 16.6875 205.125 C15.05791216 209.54127124 12.83747367 212.54892545 9.625 215.9375 C9.13112793 216.46375977 8.63725586 216.99001953 8.12841797 217.53222656 C0.12184648 225.9697028 -8.16634298 232.35986452 -18.3125 238.125 C-19.67955078 238.91197266 -19.67955078 238.91197266 -21.07421875 239.71484375 C-35.28229593 247.35599225 -51.38600292 251.9034929 -67.3125 254.125 C-68.61058594 254.30804688 -69.90867188 254.49109375 -71.24609375 254.6796875 C-78.34349794 255.43351398 -85.49523437 255.369282 -92.625 255.375 C-93.75891678 255.37601212 -93.75891678 255.37601212 -94.91574097 255.37704468 C-106.92586017 255.36004286 -118.56514567 254.84127492 -130.3125 252.125 C-131.03598633 251.95871094 -131.75947266 251.79242188 -132.50488281 251.62109375 C-160.74975611 244.82116884 -184.58655711 228.529554 -200.375 204 C-214.27852457 180.78193342 -219.41639572 155.03991784 -219.515625 128.234375 C-219.52132507 127.01333069 -219.52702515 125.79228638 -219.53289795 124.53424072 C-219.54230495 121.95577854 -219.54886473 119.37730457 -219.55273438 116.79882812 C-219.56236769 112.9281607 -219.59340374 109.05804155 -219.625 105.1875 C-219.7047588 86.68687096 -219.06521923 68.08447437 -213.625 50.25 C-213.37226318 49.39615723 -213.11952637 48.54231445 -212.85913086 47.66259766 C-210.26759729 39.31703388 -206.63293872 31.69939863 -202.3125 24.125 C-201.76980469 23.14402344 -201.22710937 22.16304687 -200.66796875 21.15234375 C-186.89611932 -2.13582013 -162.81056979 -17.72183676 -137.1875 -25.0625 C-134.56406174 -25.70295122 -131.95189362 -26.31197121 -129.3125 -26.875 C-128.27488525 -27.10147217 -128.27488525 -27.10147217 -127.21630859 -27.33251953 C-83.3328397 -36.47203327 -35.29160511 -28.12647469 0 0 Z " fill="#777778" transform="translate(4849.3125,4001.875)"/>
<path d="M0 0 C27.72 0 55.44 0 84 0 C84.01458252 8.87994873 84.02916504 17.75989746 84.04418945 26.90893555 C84.09292754 55.30807772 84.1563312 83.70717016 84.22898628 112.10626082 C84.2402547 116.51607138 84.25139311 120.92588226 84.26245117 125.33569336 C84.26465486 126.21362255 84.26685854 127.09155174 84.269129 127.99608485 C84.30451979 142.219056 84.32937386 156.44202709 84.35034702 170.66502597 C84.37209489 185.25467552 84.40513564 199.84426783 84.44870156 214.43386871 C84.47523578 223.43941629 84.4929181 232.44489253 84.49934604 241.45047728 C84.50459452 247.62250142 84.52079325 253.79443571 84.54566566 259.96641173 C84.55969927 263.52951883 84.56884458 267.09246503 84.56500816 270.6556015 C84.56097733 274.51630548 84.57997419 278.37669858 84.60127258 282.23735046 C84.59642501 283.36672506 84.59157743 284.49609965 84.58658296 285.65969771 C84.5960395 286.69377125 84.60549604 287.72784479 84.61523914 288.7932539 C84.61713775 289.68445751 84.61903635 290.57566113 84.62099248 291.49387091 C85.09550775 294.63153036 86.09992476 296.46842856 88 299 C96.39576613 303.19788306 106.62138573 301.60922441 116 302 C116 328.73 116 355.46 116 383 C107.110625 383.0825 98.22125 383.165 89.0625 383.25 C86.29367432 383.28641602 83.52484863 383.32283203 80.67211914 383.36035156 C58.37971767 383.53200601 37.94949313 381.2988886 21.06103516 365.26171875 C16.7009671 360.90906325 13.14516489 356.2842152 10 351 C9.31164063 349.86884766 9.31164063 349.86884766 8.609375 348.71484375 C1.06055166 335.09512935 -0.15694964 319.24825366 -0.12025452 304.00341797 C-0.12110894 302.70209647 -0.12196337 301.40077497 -0.12284368 300.06001949 C-0.12507154 296.46378416 -0.12109082 292.8675788 -0.11606562 289.27134728 C-0.11173671 285.38733439 -0.11320928 281.5033231 -0.1139679 277.61930847 C-0.11449158 270.89521893 -0.11136098 264.1711391 -0.10573006 257.447052 C-0.09759406 247.72521794 -0.09499768 238.00338857 -0.09374207 228.28155148 C-0.09155485 212.50752254 -0.08490371 196.73349878 -0.07543945 180.95947266 C-0.0662568 165.6388349 -0.05918014 150.31819855 -0.05493164 134.99755859 C-0.05466892 134.05278278 -0.05440619 133.10800697 -0.05413551 132.13460159 C-0.05283045 127.39481609 -0.05156674 122.65503058 -0.05032361 117.91524506 C-0.03996128 78.61015877 -0.0215285 39.30508207 0 0 Z " fill="#777778" transform="translate(5929,3870)"/>
<path d="M0 0 C27.39 0 54.78 0 83 0 C83 91.41 83 182.82 83 277 C55.61 277 28.22 277 0 277 C0 185.59 0 94.18 0 0 Z " fill="#767677" transform="translate(6766,3976)"/>
<path d="M0 0 C11.21566389 13.74823316 9.95093071 31.13051506 9.88574219 47.95166016 C9.87502377 51.24270045 9.8856835 54.53319503 9.8984375 57.82421875 C9.9236066 90.88531395 9.9236066 90.88531395 -0.3828125 103.13671875 C-9.37042564 111.85051571 -20.16547303 113.86137539 -32.375 113.75 C-42.53763405 113.01376778 -50.83057244 109.23773326 -57.80859375 101.7578125 C-65.92293274 91.3568892 -66.68583515 79.49623645 -66.67578125 66.76171875 C-66.68006638 65.54152542 -66.6843515 64.32133209 -66.68876648 63.06416321 C-66.69448257 60.49501157 -66.69503024 57.92584376 -66.69067383 55.35668945 C-66.68751783 51.45951258 -66.71099524 47.56309871 -66.73632812 43.66601562 C-66.73860202 41.15625095 -66.7393042 38.64648425 -66.73828125 36.13671875 C-66.747491 34.98838058 -66.75670074 33.84004242 -66.76618958 32.65690613 C-66.70439249 21.6649683 -65.46217308 10.54586138 -58.375 1.75 C-57.89417969 1.13511719 -57.41335938 0.52023438 -56.91796875 -0.11328125 C-51.34256984 -6.44834521 -43.3800115 -9.81166475 -35.125 -11.1875 C-22.12082948 -11.96917145 -9.21984848 -9.67577506 0 0 Z " fill="#FDFDFD" transform="translate(5745.375,4063.25)"/>
<path d="M0 0 C11.13140829 13.68983681 9.95788644 31.51015186 9.88574219 48.28369141 C9.87501693 51.24532538 9.88569937 54.20635301 9.8984375 57.16796875 C9.92682097 90.91379578 9.92682097 90.91379578 -0.3828125 103.12890625 C-9.35322768 111.85818124 -20.17291043 113.86130754 -32.375 113.75 C-42.53763405 113.01376778 -50.83057244 109.23773326 -57.80859375 101.7578125 C-65.92293274 91.3568892 -66.68583515 79.49623645 -66.67578125 66.76171875 C-66.68006638 65.54152542 -66.6843515 64.32133209 -66.68876648 63.06416321 C-66.69448257 60.49501157 -66.69503024 57.92584376 -66.69067383 55.35668945 C-66.68751783 51.45951258 -66.71099524 47.56309871 -66.73632812 43.66601562 C-66.73860202 41.15625095 -66.7393042 38.64648425 -66.73828125 36.13671875 C-66.747491 34.98838058 -66.75670074 33.84004242 -66.76618958 32.65690613 C-66.70439249 21.6649683 -65.46217308 10.54586138 -58.375 1.75 C-57.89417969 1.13511719 -57.41335938 0.52023438 -56.91796875 -0.11328125 C-51.34256984 -6.44834521 -43.3800115 -9.81166475 -35.125 -11.1875 C-22.12082948 -11.96917145 -9.21984848 -9.67577506 0 0 Z " fill="#FDFDFD" transform="translate(6263.375,4063.25)"/>
<path d="M0 0 C8.1020866 6.45873885 10.65697499 14.9677506 12.25 24.875 C12.64683269 30.26674091 12.67422407 35.63340719 12.6484375 41.03515625 C12.65046572 42.5572473 12.65338331 44.07933739 12.65713501 45.60142517 C12.66152197 48.7689655 12.65524511 51.93624957 12.64111328 55.10375977 C12.62400863 59.13017421 12.63389362 63.155989 12.65183067 67.18238163 C12.66275511 70.31827684 12.65918313 73.45403364 12.6514473 76.5899334 C12.64946987 78.07324739 12.65181632 79.55657466 12.65888596 81.03987312 C12.70549535 93.55952538 12.09796013 106.1825491 3.25 115.875 C-6.02334589 123.72947329 -15.89125074 124.839821 -27.75 123.875 C-35.42121862 122.2796158 -41.68717489 118.90656613 -46.75 112.875 C-48.81584088 109.66566495 -50.39872163 106.44180192 -51.75 102.875 C-51.99756546 102.23342957 -52.24513092 101.59185913 -52.50019836 100.93084717 C-55.14457722 93.27401478 -55.1886942 85.87448745 -55.1484375 77.84765625 C-55.15046424 76.40856276 -55.15338064 74.96947027 -55.15713501 73.53038025 C-55.16153165 70.52902348 -55.15521507 67.52793646 -55.14111328 64.52661133 C-55.12403824 60.70962777 -55.13386848 56.89327808 -55.15183067 53.07631779 C-55.16275442 50.10859033 -55.15918295 47.14100916 -55.1514473 44.1732769 C-55.14946811 42.76728678 -55.15182281 41.36128269 -55.15888596 39.95530891 C-55.21318377 26.11193065 -53.25706451 13.59864102 -43.6875 3.125 C-32.0828662 -7.81813188 -13.3798123 -8.42432626 0 0 Z " fill="#FDFDFD" transform="translate(6577.75,4055.125)"/>
<path d="M0 0 C27.39 0 54.78 0 83 0 C83 27.72 83 55.44 83 84 C55.61 84 28.22 84 0 84 C0 56.28 0 28.56 0 0 Z " fill="#777778" transform="translate(6766,3870)"/>
<path d="M0 0 C10.47329847 7.48092748 15.52734768 16.72811711 19 29 C19.495 32.465 19.495 32.465 20 36 C-7.72 36 -35.44 36 -64 36 C-62.51823039 22.66407354 -58.75848762 14.23146129 -49 5 C-48.16855469 4.21302734 -48.16855469 4.21302734 -47.3203125 3.41015625 C-35.78826692 -6.02776165 -12.72403766 -8.15396742 0 0 Z " fill="#FDFDFD" transform="translate(7076,4053)"/>
<path d="M0 0 C13.05097444 9.64537866 16.01285145 20.05140581 20 36 C-7.72 36 -35.44 36 -64 36 C-62.72372965 23.23729649 -58.96041755 13.59197218 -49.390625 4.8359375 C-36.75065759 -4.87122701 -14.09844292 -9.08035307 0 0 Z " fill="#FDFDFD" transform="translate(4451,4053)"/>
</svg>
